<svg width="20" height="20" viewBox="0 0 20 20" fill="none" xmlns="http://www.w3.org/2000/svg"><path d="M10 0C4.486 0 0 4.486 0 10s4.486 10 10 10 10-4.486 10-10S15.514 0 10 0zm0 18.77c-4.835 0-8.77-3.935-8.77-8.77 0-4.835 3.935-8.77 8.77-8.77 4.835 0 8.77 3.935 8.77 8.77 0 4.835-3.935 8.77-8.77 8.77z" fill="#A0A0A0"/><path d="M13.337 6.636a.903.903 0 0 0-1.277.005l-5.403 5.447a.903.903 0 0 0 1.282 1.271l5.403-5.447a.903.903 0 0 0-.005-1.276z" fill="#A0A0A0"/><path d="M6.636 6.663a.903.903 0 0 0 .005 1.276l5.447 5.403a.903.903 0 0 0 1.271-1.281L7.912 6.657a.903.903 0 0 0-1.276.006z" fill="#A0A0A0"/></svg>