<svg xmlns="http://www.w3.org/2000/svg" xmlns:xlink="http://www.w3.org/1999/xlink" width="22" height="23" viewBox="0 0 22 23"><defs><path id="iabpa" d="M703.342 108.88a2.005 2.005 0 0 0-2.002 2.002h-1.335a3.341 3.341 0 0 1 3.337-3.338zm8.01 0a2.005 2.005 0 0 0-2.002 2.002h-1.335a3.341 3.341 0 0 1 3.337-3.338zm-10.012-8.055c1.02 0 1.917-.278 2.659-.634a11.463 11.463 0 0 0-1.294 4.748c-3.01.323-5.37 2.848-5.37 5.943 0 3.312 2.695 6.051 6.007 6.051 1.02 0 1.998-.287 2.875-.768a7.42 7.42 0 0 1-2.207-5.283 7.32 7.32 0 0 1 2.207-5.24 6.15 6.15 0 0 0-2.179-.72c.29-4.717 3.854-8.609 8.448-9.319a9.711 9.711 0 0 0-1.801 5.66v3.679c-2.996.337-5.34 2.855-5.34 5.94 0 3.312 2.695 6.051 6.007 6.051 3.313 0 6.007-2.739 6.007-6.051 0-3.085-2.344-5.603-5.34-5.94v-3.678c0-2.257.88-4.379 2.475-5.975l1.14-1.139h-1.612a11.311 11.311 0 0 0-8.032 3.34c-.54-.517-2.27-2.005-4.65-2.005-2.816 0-4.743 2.098-4.836 2.188l-.504.482.504.482c.093.09 2.02 2.188 4.836 2.188z"/></defs><use fill="#204883" xlink:href="#iabpa" transform="translate(-696 -94)"/></svg>