<svg xmlns="http://www.w3.org/2000/svg" width="35.771" height="24.418" viewBox="0 0 35.771 24.418"><defs><style>.a{fill:#f7b081}.h{fill:#ffc89f}</style></defs><path class="a" d="M27.658 21.614c-.21 1.28-.886 2.8-2.913 2.8a.593.593 0 0 1-.585-.494l-.389-2.29a17.658 17.658 0 0 0-.627-2.561c-.726-2.2-1.642-3.33-3.267-4.025a83.69 83.69 0 0 1-1.668-.735H15.17a.593.593 0 0 1-.593-.593V2.98a.593.593 0 0 1 .593-.593h2.958l1.274-1.032A6.047 6.047 0 0 1 23.195.012h3.613a.593.593 0 0 1 .291 1.109v11.842h-.738l1.241 6.256a6.7 6.7 0 0 1 .056 2.395z"/><path d="M15.168 15.381h-4.607a.593.593 0 0 1-.593-.593V2.109a.593.593 0 0 1 .593-.593h4.607a.593.593 0 0 1 .593.593v12.679a.593.593 0 0 1-.593.593z" fill="#efe7e4"/><path d="M9.968 3.879v-1.77a.593.593 0 0 1 .593-.593h4.607a.593.593 0 0 1 .593.593v1.77z" fill="#d8d1d0"/><path d="M25.501 1.708a1.708 1.708 0 0 0 1.708 1.708 1.708 1.708 0 0 0 0 3.417 1.708 1.708 0 1 0 0 3.417 1.708 1.708 0 1 0 0 3.417h-1.938a1.708 1.708 0 1 1 0-3.417 1.708 1.708 0 1 1 0-3.417 1.708 1.708 0 0 1 0-3.417 1.708 1.708 0 1 1 0-3.417h1.938a1.708 1.708 0 0 0-1.708 1.709z" fill="#dd9a76"/><path d="M10.561 16.614H.593A.593.593 0 0 1 0 16.021V.876A.593.593 0 0 1 .593.283h9.968a.593.593 0 0 1 .593.593v15.145a.593.593 0 0 1-.593.593z" fill="#546f7a"/><path d="M0 2.557V.876A.593.593 0 0 1 .593.283h9.968a.593.593 0 0 1 .593.593v1.681z" fill="#465a65"/><ellipse cx=".944" cy=".944" rx=".944" ry=".944" transform="translate(6.469 2.98)" fill="#353535"/><path class="h" d="M33.063 13.667h-6.178a1.989 1.989 0 0 1-1.987-1.987v-.332a1.989 1.989 0 0 1 1.987-1.987h6.178a1.989 1.989 0 0 1 1.987 1.987v.332a1.989 1.989 0 0 1-1.987 1.987z"/><path class="a" d="M33.063 11.277h-6.178a1.99 1.99 0 0 0-1.822 1.2 1.976 1.976 0 0 1-.165-.792v-.332a1.989 1.989 0 0 1 1.988-1.996h6.178a1.989 1.989 0 0 1 1.987 1.987v.332a1.976 1.976 0 0 1-.165.792 1.99 1.99 0 0 0-1.823-1.191z"/><path class="h" d="M33.785 10.549h-6.9a1.989 1.989 0 0 1-1.987-1.987V8.23a1.989 1.989 0 0 1 1.987-1.987h6.9a1.989 1.989 0 0 1 1.987 1.987v.332a1.989 1.989 0 0 1-1.987 1.987z"/><path class="a" d="M33.785 8.139h-6.9a1.99 1.99 0 0 0-1.826 1.2 1.976 1.976 0 0 1-.161-.783v-.332a1.989 1.989 0 0 1 1.987-1.987h6.9a1.989 1.989 0 0 1 1.987 1.987v.333a1.977 1.977 0 0 1-.161.783 1.989 1.989 0 0 0-1.826-1.201z"/><path class="h" d="M32.897 7.426h-5.845a2.153 2.153 0 1 1 0-4.306h5.845a2.153 2.153 0 1 1 0 4.306z"/><path class="a" d="M32.897 5.056h-5.845a2.155 2.155 0 0 0-1.923 1.185 2.152 2.152 0 0 1 1.922-3.121h5.845a2.152 2.152 0 0 1 1.922 3.121 2.155 2.155 0 0 0-1.921-1.185z"/><path class="h" d="M31.288 4.306h-4.236a2.153 2.153 0 0 1 0-4.306h4.236a2.153 2.153 0 1 1 0 4.306z"/><path class="a" d="M31.288 1.934h-4.236a2.155 2.155 0 0 0-1.923 1.186A2.152 2.152 0 0 1 27.052 0h4.236a2.152 2.152 0 0 1 1.923 3.12 2.155 2.155 0 0 0-1.923-1.186z"/></svg>