<svg width="20" height="20" viewBox="0 0 20 20" fill="none" xmlns="http://www.w3.org/2000/svg"><path d="M10 0C4.486 0 0 4.486 0 10s4.486 10 10 10 10-4.486 10-10S15.514 0 10 0zm0 18.77c-4.835 0-8.77-3.935-8.77-8.77 0-4.835 3.935-8.77 8.77-8.77 4.835 0 8.77 3.935 8.77 8.77 0 4.835-3.935 8.77-8.77 8.77z" fill="#A0A0A0"/><path d="M10.16 7.042a1.03 1.03 0 1 0 0-2.059 1.03 1.03 0 0 0 0 2.059zM9.888 8.72a.616.616 0 0 0-.615.616v5.23a.616.616 0 0 0 1.23 0v-5.23a.615.615 0 0 0-.615-.616z" fill="#A0A0A0"/></svg>