<svg xmlns="http://www.w3.org/2000/svg" xmlns:xlink="http://www.w3.org/1999/xlink" width="129" height="20" viewBox="0 0 129 20"><defs><path id="z2tfa" d="M1324.915 4570.333c-.463.513-1.388 1.641-3.392 1.641-2.621 0-4.523-2.256-4.523-5.487 0-3.23 1.953-5.487 4.728-5.487 1.08 0 1.953.41 3.238 1.436v-1.18h3.803v2.154h-1.028v8.616c0 2.666-2.004 4.256-5.396 4.256-1.645 0-2.93-.359-3.855-1.128-.72-.564-1.027-1.128-1.336-2.462h2.724c.36 1.026 1.13 1.488 2.416 1.488 1.593 0 2.672-.82 2.672-2.103-.051 0-.051-1.744-.051-1.744zm-5.037-3.794c0 2 .874 3.128 2.467 3.128 1.49 0 2.621-1.334 2.621-3.231 0-1.795-1.028-3.128-2.415-3.128-1.645.051-2.673 1.282-2.673 3.23z"/><path id="z2tfb" d="M1339.151 4570.282h.976v2.154h-3.494v-1.333c-1.131 1.18-2.005 1.538-3.392 1.538-2.262 0-3.958-1.487-3.958-3.487 0-3.282 3.7-3.641 7.298-4 0-1.744-.462-2.154-2.055-2.154-1.131 0-1.953.667-2.005 1.692l-2.724-.102c.154-2.257 1.953-3.692 4.626-3.692 3.083 0 4.78 1.384 4.78 3.948zm-2.621-3.128c-2.621.256-4.369.461-4.369 2.051 0 .923.72 1.539 1.85 1.539 1.44 0 2.519-1.077 2.519-2.462v-1.128z"/><path id="z2tfc" d="M1344.599 4562.59c1.182-1.282 1.953-1.59 3.238-1.59s1.953.462 2.672 1.744c.566-.564 1.593-1.744 3.392-1.744s3.032 1.282 3.032 3.18v6.153h1.028v2.154h-3.803v-7.59c0-.974-.462-1.59-1.182-1.59-1.13 0-2.21 1.488-2.21 3.026v3.898h1.08v2.154h-3.855V4565c0-1.128-.36-1.692-1.182-1.692-1.234 0-2.313 1.487-2.262 3.282v3.64h1.08v2.155h-4.78v-2.154h.925v-6.82h-.976v-2.154h3.7v1.333z"/><path id="z2tfd" d="M1358.63 4557h3.803v5.487c1.13-1.128 2.004-1.59 3.186-1.59 2.827 0 4.831 2.41 4.831 5.795 0 3.59-1.901 6-4.677 6-1.387 0-2.158-.359-3.443-1.487v1.231h-3.803v-2.154h1.182v-11.128h-1.08zm3.751 9.898c0 2.307.925 3.538 2.724 3.538 1.542 0 2.519-1.385 2.519-3.59s-.977-3.59-2.519-3.59c-1.747 0-2.724 1.334-2.724 3.642z"/><path id="z2tfe" d="M1371.118 4557h3.804v13.282H1376v2.154h-4.883v-2.154h1.08v-11.128h-1.08z"/><path id="z2tff" d="M1387.102 4568.795c-.514 2.41-2.518 3.949-5.294 3.949-3.135 0-5.447-2.462-5.447-5.898 0-3.384 2.312-5.897 5.499-5.897 1.799 0 3.34.82 4.317 2.307 1.028 1.59 1.08 3.077 1.13 4.206h-8.12c.257 2.923 2.159 3.077 2.724 3.077 1.13 0 1.85-.513 2.313-1.693zm-2.878-3.333c-.206-1.436-1.028-2.206-2.364-2.206-1.234 0-2.159.821-2.519 2.206z"/><path id="z2tfg" d="M1395.428 4570.949c-1.028.923-1.953 1.743-3.803 1.743-2.107 0-3.65-1.436-3.65-3.384 0-.872.31-1.59.823-2.205.874-.872 2.107-1.282 5.088-1.59l1.49-.154v-.718c0-1.282-.822-2-2.364-2-1.387 0-2.055.513-2.312 1.846h-2.313c.154-1.18.462-1.795 1.08-2.41.873-.77 2.106-1.18 3.7-1.18 2.775 0 4.42 1.385 4.42 3.744v6h1.336v1.795h-3.546zm0-4.205l-.977.154c-2.055.307-2.93.615-3.494 1.179a1.562 1.562 0 0 0-.463 1.077c0 1.026.874 1.897 1.953 1.897 1.542 0 2.98-1.384 2.98-2.769z"/><path id="z2tfh" d="M1398.769 4561.205h4.317V4563h-1.234l1.85 7.59 2.159-9.385h2.107l2.159 9.385 1.85-7.59h-1.234v-1.795h4.266V4563h-1.13l-2.57 9.436h-2.364l-2.056-8.41-2.005 8.41h-2.415l-2.621-9.436h-1.08z"/><path id="z2tfi" d="M1422.873 4570.949c-1.028.923-1.953 1.743-3.752 1.743-2.107 0-3.65-1.436-3.65-3.384 0-.872.31-1.59.823-2.205.874-.872 2.107-1.282 5.088-1.59l1.49-.154v-.718c0-1.282-.822-2-2.364-2-1.387 0-2.055.513-2.312 1.846h-2.313c.154-1.18.462-1.795 1.08-2.41.873-.77 2.106-1.18 3.7-1.18 2.775 0 4.42 1.385 4.42 3.744v6h1.336v1.795h-3.546zm0-4.205l-.977.154c-2.056.307-2.93.615-3.495 1.179a1.562 1.562 0 0 0-.462 1.077c0 1.026.873 1.897 1.953 1.897 1.541 0 2.98-1.384 2.98-2.769z"/><path id="z2tfj" d="M1430.633 4563.718c.617-1.333 1.285-2.77 3.29-2.77.41 0 .616.052 1.079.155v2.102c-.566-.102-.771-.154-1.08-.154-2.518 0-3.238 2.513-3.238 3.334v4.256h1.285v1.795h-4.78v-1.795h1.285v-7.692h-1.284v-1.744h3.443z"/><path id="z2tfk" d="M1445.435 4569c-.463 1.128-1.594 3.692-4.831 3.692-3.187 0-5.345-2.41-5.345-6 0-3.333 2.312-5.743 5.396-5.743 1.799 0 4.985 1.025 4.985 6.307h-8.12c.103 2.513 1.696 3.539 3.186 3.539 1.182 0 1.902-.564 2.313-1.846h2.416zm-2.313-3.282c-.103-1.846-.977-2.872-2.518-2.872-2.313 0-2.981 2.564-2.981 2.872z"/></defs><g><g transform="translate(-1317 -4557)"><g><use fill="#d6e6f0" xlink:href="#z2tfa"/></g><g><use fill="#d6e6f0" xlink:href="#z2tfb"/></g><g><use fill="#d6e6f0" xlink:href="#z2tfc"/></g><g><use fill="#d6e6f0" xlink:href="#z2tfd"/></g><g><use fill="#d6e6f0" xlink:href="#z2tfe"/></g><g><use fill="#d6e6f0" xlink:href="#z2tff"/></g><g><use fill="#d6e6f0" xlink:href="#z2tfg"/></g><g><use fill="#d6e6f0" xlink:href="#z2tfh"/></g><g><use fill="#d6e6f0" xlink:href="#z2tfi"/></g><g><use fill="#d6e6f0" xlink:href="#z2tfj"/></g><g><use fill="#d6e6f0" xlink:href="#z2tfk"/></g></g></g></svg>