<svg xmlns="http://www.w3.org/2000/svg" xmlns:xlink="http://www.w3.org/1999/xlink" width="64" height="30" viewBox="0 0 64 30"><defs><path id="jmyka" d="M1213.049 4574.112c-2.05 0-3.726-1.682-3.726-3.738V4557c0-2.056 1.676-3.738 3.726-3.738h57.641c2.05 0 3.726 1.682 3.726 3.738v13.374c0 2.056-1.676 3.738-3.726 3.738zm-4.863-17.813v21.393a4.105 4.105 0 0 0 4.099 4.112h59.365a4.105 4.105 0 0 0 4.098-4.112v-21.393a4.105 4.105 0 0 0-4.098-4.112h-59.365a4.105 4.105 0 0 0-4.099 4.112zm4.099 25.598c-2.31 0-4.192-1.888-4.192-4.205v-21.393c0-2.318 1.882-4.206 4.192-4.206h59.365c2.31 0 4.192 1.888 4.192 4.206v21.393c0 2.308-1.891 4.205-4.192 4.205zm63.65-4.205v-21.393c0-2.374-1.92-4.299-4.285-4.299h-59.365a4.293 4.293 0 0 0-4.285 4.3v21.392c0 2.373 1.919 4.299 4.285 4.299h59.365c2.357 0 4.285-1.935 4.285-4.3z"/><path id="jmykb" d="M1215.089 4578.103l-.587-1.337-.578 1.337zm1.593 1.43h-.932l-.372-.813h-1.724l-.354.813h-.922l1.667-3.608h.913z"/><path id="jmykc" d="M1218.004 4576.542v1.028h.475c.326 0 .54-.019.653-.047a.567.567 0 0 0 .288-.168.425.425 0 0 0 .112-.299.41.41 0 0 0-.112-.299.54.54 0 0 0-.28-.168c-.111-.028-.344-.038-.707-.038h-.429zm-.866 2.99v-3.607h1.388c.522 0 .857.019 1.015.056.252.056.466.178.634.355.167.178.251.421.251.701 0 .262-.074.477-.214.655-.14.177-.317.299-.53.373-.215.075-.588.103-1.11.103h-.568v1.365z"/><path id="jmykd" d="M1221.991 4576.542v1.028h.475c.326 0 .54-.019.652-.047a.567.567 0 0 0 .29-.168.425.425 0 0 0 .11-.299.41.41 0 0 0-.11-.299.54.54 0 0 0-.28-.168c-.112-.028-.345-.038-.708-.038h-.429zm-.857 2.99v-3.607h1.388c.522 0 .857.019 1.016.056.251.056.465.178.633.355.168.178.251.421.251.701 0 .262-.074.477-.214.655-.14.177-.317.299-.53.373-.215.075-.588.103-1.11.103h-.567v1.365z"/><path id="jmyke" d="M1225.987 4577.449h.643c.391 0 .643-.01.745-.038a.587.587 0 0 0 .261-.14.422.422 0 0 0 .103-.29.414.414 0 0 0-.103-.28.501.501 0 0 0-.27-.14c-.084-.019-.317-.028-.699-.028h-.68zm-.857 2.084v-3.608h1.826c.466 0 .801.028.997.094.195.065.363.177.494.336.13.159.195.355.195.57a.88.88 0 0 1-.298.682c-.196.169-.475.28-.838.328.186.093.335.196.456.299.121.112.289.308.494.588l.522.701h-1.034l-.625-.785a7.386 7.386 0 0 0-.456-.532.674.674 0 0 0-.26-.15c-.094-.028-.234-.037-.439-.037h-.177v1.504h-.857z"/><path id="jmykf" d="M1230.16 4577.729c0 .411.112.729.345.935.233.205.513.308.848.308.345 0 .624-.103.848-.308.223-.206.335-.524.335-.944 0-.42-.112-.73-.326-.926-.214-.196-.503-.299-.857-.299s-.643.103-.857.3c-.224.196-.335.513-.335.934zm-.884.028c0-.43.093-.785.28-1.065a1.66 1.66 0 0 1 .726-.617c.298-.14.661-.206 1.08-.206.615 0 1.109.159 1.5.486.382.327.577.785.577 1.383 0 .608-.204 1.075-.614 1.412-.364.299-.848.448-1.463.448-.624 0-1.108-.15-1.472-.448-.41-.337-.614-.804-.614-1.393z"/><path id="jmykg" d="M1235.21 4579.533l-1.538-3.608h.941l1.09 2.673 1.053-2.673h.922l-1.547 3.608z"/><path id="jmykh" d="M1238.106 4579.533v-3.608h3.177v.608h-2.32v.803h2.152v.608h-2.152v.981h2.394v.608z"/><path id="jmyki" d="M1242.95 4576.542v2.383h.652c.28 0 .475-.018.606-.056a.868.868 0 0 0 .307-.159.719.719 0 0 0 .196-.346c.056-.158.074-.364.074-.626a1.94 1.94 0 0 0-.084-.635.8.8 0 0 0-.251-.365.963.963 0 0 0-.41-.177 5.565 5.565 0 0 0-.699-.028h-.39zm-.857-.617h1.574c.4 0 .699.028.904.094.205.065.391.168.559.308.168.14.307.337.4.57.094.234.15.524.15.87 0 .308-.047.579-.15.812a1.544 1.544 0 0 1-.39.552c-.16.13-.345.233-.569.308a3.066 3.066 0 0 1-.857.103h-1.62z"/><path id="jmykj" d="M1248.949 4576.542v1.028h.475c.326 0 .54-.019.652-.047a.505.505 0 0 0 .28-.168.425.425 0 0 0 .111-.299.41.41 0 0 0-.111-.299.54.54 0 0 0-.28-.168c-.112-.028-.345-.038-.708-.038h-.419zm-.866 2.99v-3.607h1.388c.521 0 .857.019 1.015.056.252.056.466.178.633.355.168.178.252.421.252.701 0 .262-.075.477-.214.655-.14.177-.317.299-.531.373-.214.075-.587.103-1.109.103h-.568v1.365z"/><path id="jmykk" d="M1252.796 4577.729c0 .411.112.729.345.935.233.205.512.308.847.308.345 0 .625-.103.848-.308.224-.206.336-.524.336-.944 0-.42-.112-.73-.327-.926-.214-.196-.503-.299-.857-.299-.353 0-.642.103-.856.3-.215.196-.336.513-.336.934zm-.894.028c0-.43.093-.785.28-1.065a1.66 1.66 0 0 1 .726-.617c.298-.14.661-.206 1.08-.206.615 0 1.118.159 1.5.486.382.327.578.785.578 1.383 0 .608-.205 1.075-.615 1.412-.363.299-.848.448-1.463.448-.624 0-1.108-.15-1.471-.448-.41-.337-.615-.804-.615-1.393z"/><path id="jmykl" d="M1257.603 4577.449h.642c.392 0 .643-.01.746-.038a.587.587 0 0 0 .26-.14.422.422 0 0 0 .103-.29.414.414 0 0 0-.102-.28.501.501 0 0 0-.27-.14c-.084-.019-.317-.028-.7-.028h-.68zm-.867 2.084v-3.608h1.826c.466 0 .801.028.997.094.196.065.363.177.494.336.13.159.195.355.195.57a.88.88 0 0 1-.298.682c-.195.169-.475.28-.838.328.186.093.335.196.456.299.121.112.289.308.494.588l.522.701h-1.034l-.625-.785a7.386 7.386 0 0 0-.456-.532.674.674 0 0 0-.26-.15c-.094-.028-.234-.037-.439-.037h-.177v1.504h-.857z"/><path id="jmykm" d="M1262.027 4579.533v-3h-1.276v-.608h3.41v.608h-1.267v3z"/><path id="jmykn" d="M1266.555 4578.103l-.597-1.337-.577 1.337zm1.592 1.43h-.94l-.373-.813h-1.714l-.354.813h-.922l1.667-3.608h.913z"/><path id="jmyko" d="M1268.622 4579.533v-3.58h.867v2.963h2.152v.607h-3.019z"/><path id="jmykp" d="M1220.575 4563.589h6.372v.392c0 1.626-.27 2.916-.801 3.888-.624 1.122-1.519 2.019-2.683 2.692a7.37 7.37 0 0 1-3.754 1.01c-2.152 0-3.996-.777-5.533-2.319-1.546-1.551-2.31-3.42-2.31-5.598 0-2.196.782-4.065 2.338-5.617 1.555-1.551 3.437-2.336 5.635-2.336 1.742 0 3.298.523 4.677 1.56.568.43 1.155 1.02 1.76 1.767l-1.257 1.15c-1.454-1.916-3.167-2.879-5.16-2.879-1.743 0-3.224.617-4.444 1.86-1.22 1.262-1.835 2.757-1.835 4.523 0 1.701.605 3.168 1.825 4.411 1.211 1.243 2.655 1.86 4.323 1.86.95 0 1.863-.243 2.738-.72.876-.485 1.556-1.112 2.031-1.897.354-.57.559-1.29.615-2.158h-4.537z"/><path id="jmykq" d="M1230.906 4563.01h1.378c1.044 0 1.845-.244 2.422-.72.578-.477.857-1.16.857-2.038 0-.86-.28-1.523-.829-2-.55-.476-1.406-.71-2.57-.71h-1.258zm0 1.57v6.71h-1.724v-15.337h2.776c1.724 0 3.01.365 3.847 1.084.95.813 1.426 1.898 1.426 3.243 0 1.29-.42 2.327-1.249 3.113-.829.785-2.03 1.186-3.586 1.186z"/><path id="jmykr" d="M1240.202 4555.953l4.08 11.496 4.788-12.271 4.518 12.28 4.49-11.495h1.853l-6.39 16.112-4.517-12.253-4.816 12.253-5.869-16.112h1.863z"/><path id="jmyks" d="M1267.626 4565.355l-2.543-6.14-2.608 6.14zm.661 1.589h-6.53l-1.835 4.346h-1.854l7.033-16.075 6.875 16.075h-1.882z"/><path id="jmykt" d="M1219.84 4555.514c-2.245 0-4.183.804-5.767 2.393-1.583 1.588-2.394 3.523-2.394 5.757 0 2.215.792 4.14 2.357 5.72 1.565 1.579 3.475 2.373 5.664 2.373 1.369 0 2.664-.346 3.847-1.037 1.183-.692 2.114-1.617 2.748-2.757.55-.991.829-2.327.829-3.982v-.579h-6.735v1.962h4.518c-.075.748-.27 1.384-.578 1.879-.456.748-1.117 1.364-1.956 1.832-.848.467-1.742.7-2.645.7-1.603 0-3.018-.607-4.183-1.803-1.173-1.196-1.77-2.645-1.77-4.28 0-1.701.597-3.178 1.78-4.374 1.183-1.196 2.626-1.804 4.312-1.804 1.92 0 3.596.944 5.012 2.804l.121.159.15-.14 1.257-1.15.13-.122-.112-.14c-.615-.757-1.22-1.364-1.798-1.804a7.765 7.765 0 0 0-4.788-1.607zm0 .187c1.741 0 3.297.523 4.676 1.56.568.43 1.155 1.02 1.76 1.767l-1.257 1.15c-1.454-1.916-3.167-2.879-5.16-2.879-1.743 0-3.224.617-4.444 1.86-1.22 1.262-1.835 2.757-1.835 4.523 0 1.701.605 3.168 1.825 4.411 1.211 1.243 2.655 1.86 4.323 1.86.95 0 1.863-.243 2.738-.72.876-.485 1.556-1.112 2.031-1.897.354-.57.559-1.29.615-2.158h-4.537v-1.59h6.372v.393c0 1.626-.27 2.916-.801 3.888-.624 1.122-1.519 2.019-2.683 2.692a7.37 7.37 0 0 1-3.754 1.01c-2.152 0-3.996-.777-5.533-2.319-1.546-1.551-2.31-3.42-2.31-5.598 0-2.196.782-4.065 2.338-5.617 1.555-1.56 3.437-2.336 5.635-2.336z"/><path id="jmyku" d="M1231.008 4562.916v-5.28h1.165c1.136 0 1.974.233 2.505.691.522.449.792 1.103.792 1.925 0 .841-.28 1.505-.829 1.963-.55.467-1.341.7-2.357.7zm1.276.187c1.053 0 1.891-.243 2.469-.739.596-.495.894-1.205.894-2.102 0-.888-.289-1.58-.857-2.075-.568-.495-1.453-.738-2.627-.738h-1.35v5.654zm-3-7.047h2.684c1.695 0 2.971.355 3.79 1.056.923.785 1.389 1.85 1.389 3.168 0 1.253-.41 2.28-1.22 3.047-.81.766-1.994 1.159-3.522 1.159h-1.583v6.71h-1.537zm1.715 8.608h1.397c1.574 0 2.804-.402 3.652-1.206.847-.804 1.276-1.879 1.276-3.187 0-1.364-.485-2.477-1.453-3.308-.857-.73-2.17-1.103-3.913-1.103h-2.869v15.523h1.91z"/><path id="jmykv" d="M1249.024 4559.56l4.517 12.253 6.25-15.766h-1.657l-4.555 11.663-4.509-12.27-4.788 12.28-4.145-11.673h-1.658l5.738 15.766zm-4.816 12.776l-6-16.476h2.06l4.014 11.318 4.788-12.271 4.518 12.28 4.425-11.327h2.058l-6.53 16.467-4.517-12.243z"/><path id="jmykw" d="M1265.083 4559.458l2.403 5.804h-4.872zm0-.486l-2.758 6.477h5.44zm3.26 7.878h-6.65l-1.836 4.346h-1.649l6.893-15.738 6.735 15.738h-1.677zm-3.242-11.869l-7.172 16.402h2.058l1.835-4.346h6.41l1.806 4.346h2.087z"/></defs><g><g transform="translate(-1212 -4552)"><g><g><use fill="#d6e6f0" xlink:href="#jmyka"/></g></g><g><g><use fill="#d6e6f0" xlink:href="#jmykb"/></g><g><use fill="#d6e6f0" xlink:href="#jmykc"/></g><g><use fill="#d6e6f0" xlink:href="#jmykd"/></g><g><use fill="#d6e6f0" xlink:href="#jmyke"/></g><g><use fill="#d6e6f0" xlink:href="#jmykf"/></g><g><use fill="#d6e6f0" xlink:href="#jmykg"/></g><g><use fill="#d6e6f0" xlink:href="#jmykh"/></g><g><use fill="#d6e6f0" xlink:href="#jmyki"/></g><g><use fill="#d6e6f0" xlink:href="#jmykj"/></g><g><use fill="#d6e6f0" xlink:href="#jmykk"/></g><g><use fill="#d6e6f0" xlink:href="#jmykl"/></g><g><use fill="#d6e6f0" xlink:href="#jmykm"/></g><g><use fill="#d6e6f0" xlink:href="#jmykn"/></g><g><use fill="#d6e6f0" xlink:href="#jmyko"/></g></g><g><g><g><use fill="#d6e6f0" xlink:href="#jmykp"/></g><g><use fill="#d6e6f0" xlink:href="#jmykq"/></g><g><use fill="#d6e6f0" xlink:href="#jmykr"/></g><g><use fill="#d6e6f0" xlink:href="#jmyks"/></g></g><g><g><use fill="#d6e6f0" xlink:href="#jmykt"/></g><g><use fill="#d6e6f0" xlink:href="#jmyku"/></g><g><use fill="#d6e6f0" xlink:href="#jmykv"/></g><g><use fill="#d6e6f0" xlink:href="#jmykw"/></g></g></g></g></g></svg>