<svg xmlns="http://www.w3.org/2000/svg" xmlns:xlink="http://www.w3.org/1999/xlink" width="18" height="24" viewBox="0 0 18 24"><defs><path id="4pvna" d="M935.563 100.85c0-.51.242-.973.632-1.314-.39-.341-.632-.804-.632-1.314 0-1.048 1.011-1.898 2.262-1.898 1.25 0 2.262.85 2.262 1.898 0 .51-.241.974-.632 1.314.39.341.632.803.632 1.314 0 1.049-1.012 1.899-2.262 1.899s-2.262-.85-2.262-1.899zm8.535 14.573V97.13c0-1.441-1.382-2.673-3.099-2.673h-8.243v23.541H941c1.717 0 3.1-1.136 3.1-2.576z"/><path id="4pvnb" d="M929.067 94.458c-1.716 0-3.117 1.231-3.117 2.673v18.292c0 1.44 1.4 2.577 3.117 2.577h.183V94.458z"/></defs><g><g transform="translate(-926 -94)"><g><use fill="#204883" xlink:href="#4pvna"/></g><g><use fill="#204883" xlink:href="#4pvnb"/></g></g></g></svg>