<svg xmlns="http://www.w3.org/2000/svg" width="35.771" height="24.418" viewBox="0 0 35.771 24.418"><defs><style>.a{fill:#f7b081}.h{fill:#ffc89f}</style></defs><path class="a" d="M27.658 2.805c-.21-1.28-.886-2.8-2.913-2.8a.593.593 0 0 0-.585.494l-.389 2.29a17.659 17.659 0 0 1-.627 2.561c-.726 2.2-1.642 3.33-3.267 4.025a83.69 83.69 0 0 0-1.668.735H15.17a.593.593 0 0 0-.593.593v10.731a.593.593 0 0 0 .593.593h2.958l1.274 1.032a6.047 6.047 0 0 0 3.794 1.343h3.613a.593.593 0 0 0 .291-1.109V11.456h-.738L27.603 5.2a6.7 6.7 0 0 0 .055-2.395z"/><path d="M15.168 9.038h-4.607a.593.593 0 0 0-.593.593V22.31a.593.593 0 0 0 .593.593h4.607a.593.593 0 0 0 .593-.593V9.631a.593.593 0 0 0-.593-.593z" fill="#efe7e4"/><path d="M9.968 20.54v1.77a.593.593 0 0 0 .593.593h4.607a.593.593 0 0 0 .593-.593v-1.77z" fill="#d8d1d0"/><path d="M25.501 22.71a1.708 1.708 0 0 1 1.708-1.708 1.708 1.708 0 0 1 0-3.417 1.708 1.708 0 0 1 0-3.417 1.708 1.708 0 1 1 0-3.417h-1.938a1.708 1.708 0 1 0 0 3.417 1.708 1.708 0 0 0 0 3.417 1.708 1.708 0 0 0 0 3.417 1.708 1.708 0 1 0 0 3.417h1.938a1.708 1.708 0 0 1-1.708-1.709z" fill="#dd9a76"/><path d="M10.561 7.805H.593A.593.593 0 0 0 0 8.398v15.145a.593.593 0 0 0 .593.593h9.968a.593.593 0 0 0 .593-.593V8.398a.593.593 0 0 0-.593-.593z" fill="#546f7a"/><path d="M0 21.86v1.681a.593.593 0 0 0 .593.593h9.968a.593.593 0 0 0 .593-.593V21.86z" fill="#465a65"/><circle cx=".944" cy=".944" r=".944" transform="translate(6.469 19.55)" fill="#353535"/><path class="h" d="M33.063 10.751h-6.178a1.989 1.989 0 0 0-1.987 1.987v.332a1.989 1.989 0 0 0 1.987 1.987h6.178a1.989 1.989 0 0 0 1.987-1.987v-.332a1.989 1.989 0 0 0-1.987-1.987z"/><path class="a" d="M33.063 13.143h-6.178a1.99 1.99 0 0 1-1.822-1.2 1.976 1.976 0 0 0-.165.792v.332a1.989 1.989 0 0 0 1.987 1.987h6.178a1.989 1.989 0 0 0 1.987-1.987v-.324a1.976 1.976 0 0 0-.165-.792 1.99 1.99 0 0 1-1.822 1.192z"/><path class="h" d="M33.785 13.872h-6.9a1.989 1.989 0 0 0-1.987 1.987v.332a1.989 1.989 0 0 0 1.987 1.987h6.9a1.989 1.989 0 0 0 1.987-1.987v-.332a1.989 1.989 0 0 0-1.987-1.987z"/><path class="a" d="M33.785 16.28h-6.9a1.99 1.99 0 0 1-1.826-1.2 1.976 1.976 0 0 0-.161.783v.332a1.989 1.989 0 0 0 1.987 1.987h6.9a1.989 1.989 0 0 0 1.987-1.987v-.333a1.976 1.976 0 0 0-.161-.783 1.989 1.989 0 0 1-1.826 1.201z"/><path class="h" d="M32.897 16.992h-5.845a2.153 2.153 0 1 0 0 4.306h5.845a2.153 2.153 0 0 0 0-4.306z"/><path class="a" d="M32.897 19.362h-5.845a2.155 2.155 0 0 1-1.923-1.185 2.152 2.152 0 0 0 1.922 3.121h5.845a2.152 2.152 0 0 0 1.922-3.121 2.155 2.155 0 0 1-1.921 1.185z"/><path class="h" d="M31.288 20.112h-4.236a2.153 2.153 0 0 0 0 4.306h4.236a2.153 2.153 0 1 0 0-4.306z"/><path class="a" d="M31.288 22.484h-4.236a2.155 2.155 0 0 1-1.923-1.186 2.152 2.152 0 0 0 1.923 3.12h4.236a2.152 2.152 0 0 0 1.923-3.12 2.155 2.155 0 0 1-1.923 1.186z"/></svg>