<svg xmlns="http://www.w3.org/2000/svg" xmlns:xlink="http://www.w3.org/1999/xlink" width="19" height="26" viewBox="0 0 19 26"><defs><path id="2yjwa" d="M592.6 107.898a.761.761 0 0 1-.608-.302c-.903.596-1.971 1.737-1.971 3.813 0 0-1.404-1.257-3.789-1.257h-.014c-2.385 0-3.79 1.257-3.79 1.257 0-2.083-1.074-3.226-1.98-3.82a.761.761 0 0 1-1.375-.454.763.763 0 0 1 1.513-.14c1.833.277 3.105 1.677 3.105 1.677 0-2.115 1.542-4.69 2.217-5.716a.762.762 0 1 1 .642.012c.679 1.034 2.209 3.597 2.209 5.704 0 0 1.265-1.39 3.09-1.673a.763.763 0 1 1 .75.899zm2.793-11.755c0-.95-.77-1.72-1.72-1.72H578.72c-.95 0-1.719.77-1.719 1.72v22.088c0 .95.77 1.719 1.719 1.719h14.955c.95 0 1.719-.77 1.719-1.719z"/></defs><use fill="#204883" xlink:href="#2yjwa" transform="translate(-577 -94)"/></svg>