<svg xmlns="http://www.w3.org/2000/svg" xmlns:xlink="http://www.w3.org/1999/xlink" width="13" height="13" viewBox="0 0 13 13"><defs><path id="ux91a" d="M1510.94 15.724a3.754 3.754 0 0 1 3.75 3.75 3.754 3.754 0 0 1-3.75 3.75 3.754 3.754 0 0 1-3.75-3.75 3.754 3.754 0 0 1 3.75-3.75zm6.874 10.122l-2.99-3.11a5.057 5.057 0 0 0 1.19-3.262 5.079 5.079 0 0 0-5.074-5.073 5.079 5.079 0 0 0-5.073 5.073 5.079 5.079 0 0 0 5.073 5.073c1.05 0 2.051-.317 2.907-.918l3.013 3.134a.658.658 0 0 0 .935.018.663.663 0 0 0 .019-.935z"/></defs><use fill="#fff" xlink:href="#ux91a" transform="translate(-1505 -14)"/></svg>