<svg xmlns="http://www.w3.org/2000/svg"><defs><symbol id="icon-cherry" viewBox="0 0 31 32"><path d="M10.215 20.703a2.789 2.789 0 0 0-2.785 2.785H5.573a4.648 4.648 0 0 1 4.642-4.644zm11.144 0a2.789 2.789 0 0 0-2.785 2.785h-1.857a4.648 4.648 0 0 1 4.642-4.644zM7.43 9.496c1.419 0 2.667-.387 3.699-.882-1.024 1.916-1.676 4.172-1.799 6.567l-.002.039c-4.188.449-7.471 3.962-7.471 8.269 0 4.608 3.75 8.419 8.358 8.419 1.419 0 2.78-.399 4-1.069a10.293 10.293 0 0 1-3.071-7.346v-.004a10.18 10.18 0 0 1 3.071-7.29 8.425 8.425 0 0 0-2.987-.997l-.044-.005c.403-6.563 5.362-11.978 11.754-12.966a13.402 13.402 0 0 0-2.506 7.838v.039-.002 5.119c-4.168.469-7.43 3.972-7.43 8.264 0 4.608 3.75 8.419 8.358 8.419 4.609 0 8.358-3.811 8.358-8.419 0-4.292-3.261-7.795-7.43-8.264v-5.117c0-3.14 1.224-6.093 3.443-8.313L27.317.21h-2.253a15.693 15.693 0 0 0-11.165 4.646l-.001.001c-.751-.719-3.158-2.79-6.47-2.79C3.51 2.067.829 4.986.7 5.111l-.701.671.701.671c.129.125 2.81 3.044 6.728 3.044z"/></symbol><symbol id="icon-Path_22" viewBox="0 0 23 32"><path d="M19.2 17.105h-.001a.935.935 0 0 1-.745-.369l-.002-.002c-1.111.734-2.426 2.138-2.426 4.693 0 0-1.728-1.547-4.663-1.547h-.017c-2.935 0-4.665 1.547-4.665 1.547 0-2.564-1.322-3.97-2.437-4.702a.937.937 0 0 1-1.693-.554v-.006a.94.94 0 0 1 1.861-.178l.001.006c2.256.341 3.822 2.064 3.822 2.064 0-2.603 1.898-5.772 2.729-7.035a.938.938 0 1 1 .796.012l-.006.002c.836 1.273 2.719 4.427 2.719 7.02 0 0 1.557-1.711 3.803-2.059a.938.938 0 1 1 .924 1.106h-.001zm3.438-14.467A2.117 2.117 0 0 0 20.521.521H2.117A2.116 2.116 0 0 0 .001 2.638v27.185c0 1.169.948 2.116 2.116 2.116h18.406a2.116 2.116 0 0 0 2.116-2.116z"/></symbol></defs></svg>