<svg xmlns="http://www.w3.org/2000/svg"><defs><symbol id="icon-twitter" viewBox="0 0 32 32"><path d="M22.809 12.603c0-.159-.004-.316-.01-.472a7.208 7.208 0 0 0 1.718-1.838l.017-.028a6.486 6.486 0 0 1-1.965.543l-.031.003a3.581 3.581 0 0 0 1.522-1.97l.007-.025a6.574 6.574 0 0 1-2.164.844l-.042.007a3.459 3.459 0 0 0-2.537-1.197c-1.92-.032-3.475 1.591-3.475 3.623 0 .289.03.568.089.839-2.889-.185-5.451-1.689-7.164-3.958a3.806 3.806 0 0 0-.471 1.844v.015-.001c0 1.288.614 2.431 1.546 3.106a3.315 3.315 0 0 1-1.589-.49l.014.008v.047c0 1.8 1.198 3.306 2.789 3.658a3.349 3.349 0 0 1-1.591.049l.022.004c.442 1.475 1.726 2.552 3.246 2.587-1.19.986-2.689 1.576-4.316 1.572-.28 0-.557-.019-.829-.053a9.298 9.298 0 0 0 5.327 1.67h.001c6.391.002 9.887-5.561 9.887-10.388z"/><path d="M1.763 15.731c0-7.898 6.402-14.301 14.3-14.301s14.301 6.403 14.301 14.301-6.403 14.301-14.301 14.301-14.3-6.403-14.3-14.301zm30.031 0C31.794 7.044 24.751 0 16.063 0S.332 7.043.332 15.731c0 8.687 7.043 15.731 15.731 15.731s15.731-7.043 15.731-15.731z"/></symbol><symbol id="icon-facebook" viewBox="0 0 32 32"><path d="M1.431 15.731c0-7.898 6.402-14.301 14.3-14.301s14.301 6.403 14.301 14.301-6.403 14.301-14.301 14.301S1.43 23.629 1.43 15.731zm30.031 0C31.462 7.044 24.419 0 15.731 0S0 7.043 0 15.731c0 8.687 7.043 15.731 15.731 15.731s15.731-7.043 15.731-15.731z"/><path d="M16.334 24.81v-9.08h2.997l.472-3.009h-3.469v-1.509c0-.785.258-1.534 1.384-1.534h2.252V6.675h-3.197c-2.689 0-3.422 1.769-3.422 4.224v1.821h-1.845v3.01h1.845v9.08h2.984z"/></symbol></defs></svg>