<svg xmlns="http://www.w3.org/2000/svg" width="21.038" height="20.12" viewBox="0 0 21.038 20.12"><path d="M11.535.631l2.373 4.808a1.133 1.133 0 0 0 .853.62l5.306.771a1.133 1.133 0 0 1 .633 1.932l-3.839 3.742a1.133 1.133 0 0 0-.326 1l.906 5.285a1.133 1.133 0 0 1-1.644 1.195l-4.746-2.495a1.134 1.134 0 0 0-1.055 0l-4.749 2.498A1.133 1.133 0 0 1 3.6 18.792l.906-5.285a1.133 1.133 0 0 0-.326-1L.344 8.762A1.133 1.133 0 0 1 .972 6.83l5.306-.771a1.133 1.133 0 0 0 .853-.62L9.5.631a1.133 1.133 0 0 1 2.035 0z" fill="#ed8a19"/></svg>