<svg xmlns="http://www.w3.org/2000/svg" xmlns:xlink="http://www.w3.org/1999/xlink" width="34" height="34" viewBox="0 0 34 34"><defs><path id="p9u4a" d="M968.235 4562.391c0-.169-.004-.336-.011-.501a7.592 7.592 0 0 0 1.843-1.982 7.076 7.076 0 0 1-2.121.58 3.79 3.79 0 0 0 1.624-2.12 7.093 7.093 0 0 1-2.344.904c-.674-.766-1.634-1.254-2.696-1.272-2.04-.034-3.692 1.69-3.692 3.849 0 .307.032.604.095.891-3.07-.197-5.792-1.795-7.612-4.205a4.09 4.09 0 0 0-.5 1.975c0 1.368.652 2.583 1.643 3.3a3.534 3.534 0 0 1-1.673-.512v.05c0 1.912 1.273 3.513 2.963 3.887a3.498 3.498 0 0 1-1.667.056c.47 1.567 1.834 2.711 3.449 2.749-1.264 1.048-2.857 1.674-4.586 1.67-.298 0-.592-.02-.881-.056a9.962 9.962 0 0 0 5.661 1.774c6.79.002 10.505-5.909 10.505-11.037z"/><path id="p9u4b" d="M945.873 4565.714c0-8.392 6.802-15.195 15.194-15.195 8.392 0 15.195 6.803 15.195 15.195s-6.803 15.195-15.195 15.195-15.194-6.803-15.194-15.195zm31.908 0c0-9.23-7.483-16.714-16.714-16.714-9.23 0-16.714 7.483-16.714 16.714 0 9.23 7.483 16.714 16.714 16.714 9.23 0 16.714-7.483 16.714-16.714z"/></defs><use fill="#d6e6f0" xlink:href="#p9u4a" transform="translate(-944 -4549)"/><use fill="#d6e6f0" xlink:href="#p9u4b" transform="translate(-944 -4549)"/></svg>