<svg xmlns="http://www.w3.org/2000/svg" xmlns:xlink="http://www.w3.org/1999/xlink" width="41" height="70" viewBox="0 0 41 70"><defs><path id="mi4ma" d="M1284.946 299.136l6.476 11.26c.617-2.693 2.391-4.984 4.74-6.221 1.996-1.052 3.842-.988 6.7-.988 3.94-.003 11.215.002 15.862 0-6.599-12.946-24.255-15.133-33.778-4.051z"/><path id="mi4mb" d="M1300.478 305.673c-3.756-.003-6.808 3.054-6.808 6.81 0 3.757 3.054 6.811 6.808 6.811s6.808-3.054 6.808-6.81c0-3.757-3.054-6.811-6.808-6.811z"/><path id="mi4mc" d="M1292.377 317.046a5467.51 5467.51 0 0 1-9.054-15.746c-7.866 12.054-1.088 28.48 13.189 31.283l6.606-11.184c-3.82 1.134-8.293-.123-10.741-4.353z"/><path id="mi4md" d="M1319.789 305.668l-12.99.002c3.183 2.96 3.877 7.753 1.721 11.469-1.623 2.8-6.808 11.55-9.32 15.785 14.71.906 25.433-13.51 20.589-27.256z"/></defs><use fill="#f6772e" xlink:href="#mi4ma" transform="translate(-1280 -292)"/><use fill="#f6772e" xlink:href="#mi4mb" transform="translate(-1280 -292)"/><use fill="#f6772e" xlink:href="#mi4mc" transform="translate(-1280 -292)"/><use fill="#f6772e" xlink:href="#mi4md" transform="translate(-1280 -292)"/><text fill="#777" style="font-kerning:normal" dominant-baseline="text-before-edge" font-family="'Futura','FuturaBT-Medium'" font-size="12" transform="translate(8 47)"><tspan>Web</tspan></text><text fill="#f6772e" style="font-kerning:normal" dominant-baseline="text-before-edge" font-family="'Futura','Futura-Bold'" font-size="10" font-style="none" font-weight="700" transform="translate(3 59)"><tspan>GOOD</tspan></text></svg>