<svg xmlns="http://www.w3.org/2000/svg" xmlns:xlink="http://www.w3.org/1999/xlink" width="30" height="30" viewBox="0 0 30 30"><defs><path id="zvtga" d="M1501.955 4581.47c-8.239 0-14.955-6.617-14.955-14.735 0-8.117 6.716-14.735 14.955-14.735 1.612 0 3.224.265 4.746.75.672.22 1.03.926.806 1.588a1.273 1.273 0 0 1-1.611.794c-1.254-.44-2.597-.617-3.94-.617-6.852-.045-12.449 5.47-12.449 12.22 0 6.75 5.597 12.265 12.448 12.265s12.448-5.515 12.448-12.265a12.27 12.27 0 0 0-.403-3.132c-.18-.662.224-1.324.896-1.5a1.244 1.244 0 0 1 1.522.882c.313 1.235.492 2.515.492 3.794 0 8.074-6.716 14.691-14.955 14.691z"/><path id="zvtgb" d="M1499.448 4573.132h-2.463v-9.176c-.895.838-1.97 1.456-3.179 1.853v-2.206c.627-.22 1.343-.618 2.104-1.191.762-.574 1.254-1.236 1.568-2.03h2.015v12.75z"/><path id="zvtgc" d="M1504.06 4562.72c.268-.264.627-.397 1.12-.397.492 0 .85.133 1.118.397.27.265.403.662.403 1.103 0 .486-.134.883-.402 1.147-.27.265-.672.398-1.12.398-.492 0-.85-.133-1.12-.398-.268-.264-.402-.661-.402-1.147 0-.44.134-.838.403-1.103zm-.18 5.295c.27-.397.762-.618 1.344-.618.537 0 .94.176 1.298.53.314.352.493.838.493 1.411 0 .662-.18 1.191-.493 1.544s-.76.53-1.253.53c-.538 0-.94-.177-1.299-.574-.358-.397-.537-.926-.537-1.588 0-.485.134-.927.448-1.235zm-.716-1.765c-.761.353-1.298.794-1.612 1.323a3.475 3.475 0 0 0-.537 1.897c0 1.28.448 2.25 1.388 2.956.761.618 1.746.927 2.91.927 1.299 0 2.284-.353 3.045-1.103.761-.75 1.12-1.677 1.12-2.868 0-.75-.18-1.367-.538-1.897-.358-.53-.895-.97-1.612-1.235.538-.265.985-.618 1.299-1.059.313-.485.448-1.015.448-1.588 0-.927-.359-1.72-1.03-2.338-.672-.618-1.657-.927-2.866-.927-1.254 0-2.194.309-2.866.927-.671.617-.985 1.411-.985 2.338 0 .573.18 1.059.448 1.544.269.485.761.838 1.388 1.103z"/><path id="zvtgd" d="M1515.701 4555.53h-1.567v-1.545c0-.706-.582-1.235-1.253-1.235-.717 0-1.254.573-1.254 1.235v1.544h-1.567c-.717 0-1.254.574-1.254 1.236 0 .661.582 1.235 1.254 1.235h1.567v1.544c0 .706.582 1.235 1.254 1.235.716 0 1.253-.573 1.253-1.235V4558h1.567c.717 0 1.254-.574 1.254-1.235 0-.662-.582-1.236-1.254-1.236z"/></defs><g><g transform="translate(-1487 -4552)"><g><g><g><g><use fill="#d6e6f0" xlink:href="#zvtga"/></g><g><use fill="#d6e6f0" xlink:href="#zvtgb"/></g><g><use fill="#d6e6f0" xlink:href="#zvtgc"/></g><g><use fill="#d6e6f0" xlink:href="#zvtgd"/></g></g></g></g></g></g></svg>