<svg xmlns="http://www.w3.org/2000/svg" xmlns:xlink="http://www.w3.org/1999/xlink" width="68" height="75" viewBox="0 0 68 75"><defs><path id="bpvda" d="M1499.935 297.456h-1.995v-1.995h1.995zm-9.975 0h-1.995v-1.995h1.995zm10.972-5.586l2.594-2.593a.964.964 0 0 0 0-1.397c-.4-.399-.998-.399-1.397 0l-2.992 2.993c-1.397-.998-3.192-1.397-5.187-1.397s-3.79.4-5.387 1.197l-2.793-2.992c-.399-.2-1.197-.2-1.596 0-.2.399-.2 1.197 0 1.596l2.594 2.593c-2.793 2.195-4.788 5.586-4.788 9.576h23.94c0-3.99-1.995-7.58-4.988-9.576zm9.975 11.571c-1.596 0-2.992 1.397-2.992 2.993v13.965c0 1.596 1.396 2.992 2.992 2.992s2.993-1.396 2.993-2.992v-13.965c0-1.596-1.397-2.993-2.993-2.993zm-33.915 0c-1.596 0-2.992 1.397-2.992 2.993v13.965c0 1.596 1.396 2.992 2.992 2.992s2.993-1.396 2.993-2.992v-13.965c0-1.596-1.397-2.993-2.993-2.993zm4.988 19.95c0 1.197.798 1.995 1.995 1.995h1.995v6.983c0 1.596 1.396 2.992 2.992 2.992s2.993-1.396 2.993-2.992v-6.983h3.99v6.983c0 1.596 1.396 2.992 2.992 2.992s2.993-1.396 2.993-2.992v-6.983h1.995c1.197 0 1.995-.798 1.995-1.995v-19.95h-23.94z"/></defs><g><g transform="translate(-1459 -287)"><g><g><use fill="#e7ecf2" xlink:href="#bpvda"/></g></g><g><g><text fill="#777" style="font-kerning:normal" dominant-baseline="text-before-edge" font-family="'Futura','FuturaBT-Medium'" font-size="12" transform="translate(1461 339)"><tspan>Android App</tspan></text></g></g><g><g><text fill="#e7ecf2" style="font-kerning:normal" dominant-baseline="text-before-edge" font-family="'Futura','Futura-Bold'" font-size="10" font-style="none" font-weight="700" transform="translate(1459 351)"><tspan>DON’T HAVE</tspan></text></g></g></g></g></svg>