<svg width="20" height="20" viewBox="0 0 20 20" fill="none" xmlns="http://www.w3.org/2000/svg">
<path d="M10 0C4.48615 0 0 4.48585 0 10C0 15.5142 4.48615 20 10 20C15.5138 20 20 15.5142 20 10C20 4.48585 15.5138 0 10 0ZM10 18.7692C5.16462 18.7692 1.23077 14.8354 1.23077 10C1.23077 5.16462 5.16462 1.23077 10 1.23077C14.8354 1.23077 18.7692 5.16462 18.7692 10C18.7692 14.8354 14.8354 18.7692 10 18.7692Z" fill="#A0A0A0"/>
<path d="M13.3366 6.63568C12.9829 6.28478 12.411 6.28709 12.0601 6.64082L6.65689 12.0878C6.306 12.4416 6.3083 13.0134 6.66204 13.3643C7.01577 13.7152 7.58764 13.7129 7.93854 13.3592L13.3418 7.91217C13.693 7.55812 13.6904 6.98657 13.3366 6.63568Z" fill="#A0A0A0"/>
<path d="M6.63568 6.66264C6.28478 7.01638 6.28709 7.58825 6.64082 7.93914L12.0878 13.3424C12.4416 13.6933 13.0134 13.691 13.3643 13.3372C13.7152 12.9835 13.7129 12.4116 13.3592 12.0607L7.91217 6.65749C7.55812 6.30628 6.98657 6.30891 6.63568 6.66264Z" fill="#A0A0A0"/>
</svg>
