<svg xmlns="http://www.w3.org/2000/svg" width="35.771" height="24.418" viewBox="0 0 35.771 24.418"><defs><style>.a{fill:#f7b081;}.b{fill:#efe7e4;}.c{fill:#d8d1d0;}.d{fill:#dd9a76;}.e{fill:#546f7a;}.f{fill:#465a65;}.g{fill:#353535;}.h{fill:#ffc89f;}</style></defs><g transform="translate(0)"><g transform="translate(0 0)"><path class="a" d="M198.14,22.268c-.21,1.28-.886,2.8-2.913,2.8a.593.593,0,0,1-.585-.494l-.389-2.29a17.658,17.658,0,0,0-.627-2.561c-.726-2.2-1.642-3.33-3.267-4.025-.781-.334-1.415-.62-1.668-.735h-3.039a.593.593,0,0,1-.593-.593V3.634a.593.593,0,0,1,.593-.593h2.958l1.274-1.032A6.047,6.047,0,0,1,193.677.666h3.613a.593.593,0,0,1,.291,1.109V13.617h-.738l1.241,6.256A6.7,6.7,0,0,1,198.14,22.268Z" transform="translate(-170.482 -0.654)"/><path class="b" d="M131.893,129.018h-4.607a.593.593,0,0,1-.593-.593V115.746a.593.593,0,0,1,.593-.593h4.607a.593.593,0,0,1,.593.593v12.679A.593.593,0,0,1,131.893,129.018Z" transform="translate(-116.725 -113.637)"/><path class="c" d="M126.693,263.225v-1.77a.593.593,0,0,1,.593-.593h4.607a.593.593,0,0,1,.593.593v1.77Z" transform="translate(-116.725 -259.346)"/><path class="d" d="M300.852,138.572a1.708,1.708,0,0,0,1.708,1.708,1.708,1.708,0,0,0,0,3.417,1.708,1.708,0,1,0,0,3.417,1.708,1.708,0,1,0,0,3.417h-1.938a1.708,1.708,0,1,1,0-3.417,1.708,1.708,0,1,1,0-3.417,1.708,1.708,0,0,1,0-3.417,1.708,1.708,0,1,1,0-3.417h1.938A1.708,1.708,0,0,0,300.852,138.572Z" transform="translate(-275.351 -136.864)"/><path class="e" d="M10.975,115.867H1.007a.593.593,0,0,1-.593-.593V100.129a.593.593,0,0,1,.593-.593h9.968a.593.593,0,0,1,.593.593v15.145A.593.593,0,0,1,10.975,115.867Z" transform="translate(-0.414 -99.253)"/><path class="f" d="M.414,279.875v-1.681a.593.593,0,0,1,.593-.593h9.968a.593.593,0,0,1,.593.593v1.681Z" transform="translate(-0.414 -277.318)"/><ellipse class="g" cx="0.944" cy="0.944" rx="0.944" ry="0.944" transform="translate(6.469 2.98)"/><path class="h" d="M323.992,141.171h-6.178a1.989,1.989,0,0,1-1.987-1.987v-.332a1.989,1.989,0,0,1,1.987-1.987h6.178a1.989,1.989,0,0,1,1.987,1.987v.332A1.989,1.989,0,0,1,323.992,141.171Z" transform="translate(-290.929 -127.504)"/><path class="a" d="M323.992,153.92h-6.178a1.99,1.99,0,0,0-1.822,1.2,1.976,1.976,0,0,1-.165-.792v-.332A1.989,1.989,0,0,1,317.815,152h6.178a1.989,1.989,0,0,1,1.987,1.987v.332a1.976,1.976,0,0,1-.165.792A1.99,1.99,0,0,0,323.992,153.92Z" transform="translate(-290.929 -142.643)"/><path class="h" d="M324.714,180.7h-6.9a1.989,1.989,0,0,1-1.987-1.987v-.332a1.989,1.989,0,0,1,1.987-1.987h6.9a1.989,1.989,0,0,1,1.987,1.987v.332A1.989,1.989,0,0,1,324.714,180.7Z" transform="translate(-290.929 -170.151)"/><path class="a" d="M324.714,193.544h-6.9a1.99,1.99,0,0,0-1.826,1.2,1.976,1.976,0,0,1-.161-.783v-.332a1.989,1.989,0,0,1,1.987-1.987h6.9a1.989,1.989,0,0,1,1.987,1.987v.333a1.977,1.977,0,0,1-.161.783A1.989,1.989,0,0,0,324.714,193.544Z" transform="translate(-290.929 -185.405)"/><path class="h" d="M323.827,220.226h-5.845a2.153,2.153,0,1,1,0-4.306h5.845a2.153,2.153,0,1,1,0,4.306Z" transform="translate(-290.93 -212.8)"/><path class="a" d="M323.826,232.871h-5.845a2.155,2.155,0,0,0-1.923,1.185,2.152,2.152,0,0,1,1.922-3.121h5.845a2.152,2.152,0,0,1,1.922,3.121A2.155,2.155,0,0,0,323.826,232.871Z" transform="translate(-290.929 -227.815)"/><path class="h" d="M322.217,259.753h-4.236a2.153,2.153,0,0,1,0-4.306h4.236a2.153,2.153,0,1,1,0,4.306Z" transform="translate(-290.929 -255.447)"/><path class="a" d="M322.217,272.406h-4.236a2.155,2.155,0,0,0-1.923,1.186,2.152,2.152,0,0,1,1.923-3.12h4.236a2.152,2.152,0,0,1,1.923,3.12A2.155,2.155,0,0,0,322.217,272.406Z" transform="translate(-290.929 -270.472)"/></g></g></svg>