<svg xmlns="http://www.w3.org/2000/svg" xmlns:xlink="http://www.w3.org/1999/xlink" width="34" height="34" viewBox="0 0 34 34"><defs><path id="oizra" d="M890.52 4565.714c0-8.392 6.802-15.195 15.194-15.195 8.392 0 15.195 6.803 15.195 15.195s-6.803 15.195-15.195 15.195-15.195-6.803-15.195-15.195zm31.908 0c0-9.23-7.483-16.714-16.714-16.714-9.23 0-16.714 7.483-16.714 16.714 0 9.23 7.483 16.714 16.714 16.714 9.23 0 16.714-7.483 16.714-16.714z"/><path id="oizrb" d="M906.355 4575.361v-9.647h3.184l.502-3.197h-3.686v-1.603c0-.834.274-1.63 1.471-1.63h2.393v-3.191h-3.397c-2.857 0-3.636 1.88-3.636 4.488v1.935h-1.96v3.198h1.96v9.647h3.17z"/></defs><g><g transform="translate(-889 -4549)"><g><g><use fill="#d6e6f0" xlink:href="#oizra"/></g><g><use fill="#d6e6f0" xlink:href="#oizrb"/></g></g></g></g></svg>