<svg width="20" height="20" viewBox="0 0 20 20" fill="none" xmlns="http://www.w3.org/2000/svg">
<path d="M10 0C4.48615 0 0 4.48585 0 10C0 15.5142 4.48615 20 10 20C15.5138 20 20 15.5142 20 10C20 4.48585 15.5138 0 10 0ZM10 18.7692C5.16462 18.7692 1.23077 14.8354 1.23077 10C1.23077 5.16462 5.16462 1.23077 10 1.23077C14.8354 1.23077 18.7692 5.16462 18.7692 10C18.7692 14.8354 14.8354 18.7692 10 18.7692Z" fill="#A0A0A0"/>
<path d="M10.1596 7.04186C10.728 7.04186 11.1888 6.58106 11.1888 6.01263C11.1888 5.4442 10.728 4.9834 10.1596 4.9834C9.59117 4.9834 9.13037 5.4442 9.13037 6.01263C9.13037 6.58106 9.59117 7.04186 10.1596 7.04186Z" fill="#A0A0A0"/>
<path d="M9.88833 8.72046C9.54864 8.72046 9.27295 8.99615 9.27295 9.33584V14.5666C9.27295 14.9063 9.54864 15.182 9.88833 15.182C10.228 15.182 10.5037 14.9063 10.5037 14.5666V9.33584C10.5037 8.99584 10.228 8.72046 9.88833 8.72046Z" fill="#A0A0A0"/>
</svg>
