<svg xmlns="http://www.w3.org/2000/svg" xmlns:xlink="http://www.w3.org/1999/xlink" width="27" height="30" viewBox="0 0 27 30"><defs><path id="c9uka" d="M1157.938 4566.162a3.054 3.054 0 0 0-.354-.133H1149.262a1 1 0 0 0-1.018 1.015 1 1 0 0 0 1.018 1.015h3.099c.088 0 .177.088.177.176 0 .044-.045.089-.089.133-1.726.926-3.895 1.456-6.33 1.456-.575 0-1.15-.045-1.726-.089v2.339c.487.044.974.044 1.461.044 3.364 0 6.418-.794 8.676-2.162.044 0 .044-.044.088-.044.133 0 .221.088.221.22v.045l-.487 1.279c-.265.662.089 1.412.797 1.676.133.045.31.089.443.089.53 0 1.018-.31 1.24-.839l1.725-4.676c.266-.574 0-1.235-.62-1.544z"/><path id="c9ukb" d="M1146.164 4557.382c2.434 0 4.647.574 6.374 1.5 0 0 1.106.795 1.593.045.576-.883-.575-1.412-.575-1.412-2.125-1.015-4.78-1.589-7.613-1.589-.487 0-.974 0-1.461.045v1.5c.531-.089 1.107-.089 1.682-.089z"/><path id="c9ukc" d="M1133.815 4552a1.82 1.82 0 0 0-1.815 1.809v19.72c0 1.015.797 1.81 1.815 1.81h10.623v-3.265c-6.374-.442-11.331-3.883-11.331-8.074s4.957-7.588 11.33-8.074V4552z"/><path id="c9ukd" d="M1136.293 4563.603c0 3.088 3.497 5.647 8.145 6.132v-12.264c-4.604.485-8.145 3.044-8.145 6.132z"/><path id="c9uke" d="M1136.16 4579.441c-.044 1.28-.929 2.118-2.08 2.118-.62 0-1.15-.22-1.549-.706-.354-.397-.531-.882-.531-1.456 0-.573.221-1.103.62-1.5.398-.397.885-.573 1.505-.573.84 0 1.505.397 1.814 1.103h-.752c-.266-.353-.664-.53-1.107-.53-.398 0-.752.132-1.018.441-.31.31-.442.706-.442 1.103 0 .441.132.838.398 1.103.266.309.664.441 1.062.441.62 0 1.107-.308 1.417-.97h-1.86v-.574z"/><path id="c9ukf" d="M1138.064 4578.162l-.575 1.544h1.15zm-1.24 3.309h-.62l1.594-4.103h.576l1.593 4.103h-.664l-.442-1.192h-1.594z"/><path id="c9ukg" d="M1140.189 4581.47v-4.102h.885l1.195 3.176 1.195-3.176h.885v4.103h-.575l.044-3.53-1.328 3.53h-.442l-1.328-3.53.044 3.53z"/><path id="c9ukh" d="M1146.96 4581.559c-.619 0-1.106-.22-1.504-.662-.399-.397-.576-.926-.576-1.5a2.111 2.111 0 0 1 2.125-2.118c.974 0 1.77.618 2.036 1.633h-1.107c-.22-.397-.53-.618-.973-.618-.62 0-1.107.485-1.107 1.059 0 .662.487 1.147 1.062 1.147.399 0 .709-.22.93-.574h1.106c-.22 1.015-1.018 1.633-1.991 1.633z"/><path id="c9uki" d="M1150.9 4578.735l-.398 1.324h.796zm-.885 2.736h-1.107l1.594-4.103h.84l1.594 4.103h-1.107l-.22-.574h-1.373z"/><path id="c9ukj" d="M1154.175 4579.265c.487 0 .753-.133.753-.486 0-.352-.221-.485-.664-.485h-.266v.97zm-1.239 2.206v-4.103h1.372c.443 0 .753.044 1.018.22.354.265.576.618.576 1.147 0 .662-.354 1.147-.93 1.324l1.018 1.412h-1.24l-.796-1.324v1.324z"/><path id="c9ukk" d="M1156.433 4581.47v-4.102h2.213v.882h-1.24v.662h1.24v.926h-1.24v.706h1.24v.882h-2.213z"/></defs><g><g transform="translate(-1132 -4552)"><g><g><use fill="#d6e6f0" xlink:href="#c9uka"/></g><g><use fill="#d6e6f0" xlink:href="#c9ukb"/></g><g><g><use fill="#d6e6f0" xlink:href="#c9ukc"/></g><g><use fill="#d6e6f0" xlink:href="#c9ukd"/></g></g></g><g><g><use fill="#d6e6f0" xlink:href="#c9uke"/></g><g><use fill="#d6e6f0" xlink:href="#c9ukf"/></g><g><use fill="#d6e6f0" xlink:href="#c9ukg"/></g><g><use fill="#d6e6f0" xlink:href="#c9ukh"/></g><g><use fill="#d6e6f0" xlink:href="#c9uki"/></g><g><use fill="#d6e6f0" xlink:href="#c9ukj"/></g><g><use fill="#d6e6f0" xlink:href="#c9ukk"/></g></g></g></g></svg>