<svg xmlns="http://www.w3.org/2000/svg" xmlns:xlink="http://www.w3.org/1999/xlink" width="23" height="21" viewBox="0 0 23 21"><defs><path id="s9e3a" d="M1076.463 99.914c0 .283-.23.513-.513.513h-.513a.513.513 0 0 1-.513-.513v-.581c0-.284.23-.513.513-.513h.513c.283 0 .513.23.513.513zm-.014 16.419h-19.782v-14.365h19.782zm-6.295-17c0-.284.23-.513.513-.513h.512c.284 0 .513.23.513.513v.581c0 .283-.23.513-.513.513h-.512a.513.513 0 0 1-.513-.513zm2.385 0c0-.284.23-.513.513-.513h.513c.283 0 .512.23.512.513v.581c0 .283-.23.513-.512.513h-.513a.513.513 0 0 1-.513-.513zm4.188-2.333h-20.338a1.39 1.39 0 0 0-1.389 1.39v18.22c0 .767.623 1.39 1.39 1.39h20.337a1.39 1.39 0 0 0 1.39-1.39V98.39a1.39 1.39 0 0 0-1.39-1.39z"/><path id="s9e3b" d="M1059.962 109.692l3.718 1.73a.72.72 0 0 0 .693-.047.72.72 0 0 0 .334-.61v-.018a.725.725 0 0 0-.418-.655l-2.325-1.081 2.325-1.08a.725.725 0 0 0 .418-.656v-.019a.719.719 0 0 0-.723-.722.726.726 0 0 0-.304.067l-3.718 1.729a.725.725 0 0 0-.418.655v.052c0 .28.164.537.418.655z"/><path id="s9e3c" d="M1064.74 113.214a.725.725 0 0 0 .584.297h.019a.72.72 0 0 0 .688-.502l2.449-7.59a.725.725 0 0 0-.688-.943h-.019a.72.72 0 0 0-.688.502l-2.45 7.59c-.07.22-.03.46.106.646z"/><path id="s9e3d" d="M1068.409 107.275c0 .28.164.537.418.656l2.325 1.08-2.325 1.08a.725.725 0 0 0-.418.656v.019a.72.72 0 0 0 .723.722.72.72 0 0 0 .304-.067l3.718-1.729a.726.726 0 0 0 .418-.655v-.052a.725.725 0 0 0-.418-.655l-3.718-1.73a.724.724 0 0 0-1.027.656v.019z"/></defs><g><g transform="translate(-1055 -97)"><g><use fill="#204883" xlink:href="#s9e3a"/></g><g><use fill="#204883" xlink:href="#s9e3b"/></g><g><use fill="#204883" xlink:href="#s9e3c"/></g><g><use fill="#204883" xlink:href="#s9e3d"/></g></g></g></svg>