<svg xmlns="http://www.w3.org/2000/svg" width="35.771" height="24.418" viewBox="0 0 35.771 24.418"><defs><style>.a{fill:#f7b081;}.b{fill:#efe7e4;}.c{fill:#d8d1d0;}.d{fill:#dd9a76;}.e{fill:#546f7a;}.f{fill:#465a65;}.g{fill:#353535;}.h{fill:#ffc89f;}</style></defs><g transform="translate(-0.414 -0.666)"><g transform="translate(0.414 0.666)"><path class="a" d="M198.14,3.471c-.21-1.28-.886-2.8-2.913-2.8a.593.593,0,0,0-.585.494l-.389,2.29a17.659,17.659,0,0,1-.627,2.561c-.726,2.2-1.642,3.33-3.267,4.025-.781.334-1.415.62-1.668.735h-3.039a.593.593,0,0,0-.593.593V22.1a.593.593,0,0,0,.593.593h2.958l1.274,1.032a6.047,6.047,0,0,0,3.794,1.343h3.613a.593.593,0,0,0,.291-1.109V12.122h-.738l1.241-6.256A6.7,6.7,0,0,0,198.14,3.471Z" transform="translate(-170.482 -0.666)"/><path class="b" d="M131.893,115.153h-4.607a.593.593,0,0,0-.593.593v12.679a.593.593,0,0,0,.593.593h4.607a.593.593,0,0,0,.593-.593V115.746A.593.593,0,0,0,131.893,115.153Z" transform="translate(-116.725 -106.115)"/><path class="c" d="M126.693,260.862v1.77a.593.593,0,0,0,.593.593h4.607a.593.593,0,0,0,.593-.593v-1.77Z" transform="translate(-116.725 -240.322)"/><path class="d" d="M300.852,148.823a1.708,1.708,0,0,1,1.708-1.708,1.708,1.708,0,0,1,0-3.417,1.708,1.708,0,0,1,0-3.417,1.708,1.708,0,1,1,0-3.417h-1.938a1.708,1.708,0,1,0,0,3.417,1.708,1.708,0,0,0,0,3.417,1.708,1.708,0,0,0,0,3.417,1.708,1.708,0,1,0,0,3.417h1.938A1.708,1.708,0,0,1,300.852,148.823Z" transform="translate(-275.351 -126.113)"/><path class="e" d="M10.975,99.536H1.007a.593.593,0,0,0-.593.593v15.145a.593.593,0,0,0,.593.593h9.968a.593.593,0,0,0,.593-.593V100.129A.593.593,0,0,0,10.975,99.536Z" transform="translate(-0.414 -91.731)"/><path class="f" d="M.414,277.6v1.681a.593.593,0,0,0,.593.593h9.968a.593.593,0,0,0,.593-.593V277.6Z" transform="translate(-0.414 -255.74)"/><circle class="g" cx="0.944" cy="0.944" r="0.944" transform="translate(6.469 19.55)"/><path class="h" d="M323.992,136.865h-6.178a1.989,1.989,0,0,0-1.987,1.987v.332a1.989,1.989,0,0,0,1.987,1.987h6.178a1.989,1.989,0,0,0,1.987-1.987v-.332A1.989,1.989,0,0,0,323.992,136.865Z" transform="translate(-290.929 -126.114)"/><path class="a" d="M323.992,153.2h-6.178a1.99,1.99,0,0,1-1.822-1.2,1.976,1.976,0,0,0-.165.792v.332a1.989,1.989,0,0,0,1.987,1.987h6.178a1.989,1.989,0,0,0,1.987-1.987V152.8a1.976,1.976,0,0,0-.165-.792A1.99,1.99,0,0,1,323.992,153.2Z" transform="translate(-290.929 -140.057)"/><path class="h" d="M324.714,176.392h-6.9a1.989,1.989,0,0,0-1.987,1.987v.332a1.989,1.989,0,0,0,1.987,1.987h6.9a1.989,1.989,0,0,0,1.987-1.987v-.332A1.989,1.989,0,0,0,324.714,176.392Z" transform="translate(-290.929 -162.52)"/><path class="a" d="M324.714,192.85h-6.9a1.99,1.99,0,0,1-1.826-1.2,1.976,1.976,0,0,0-.161.783v.332a1.989,1.989,0,0,0,1.987,1.987h6.9a1.989,1.989,0,0,0,1.987-1.987v-.333a1.976,1.976,0,0,0-.161-.783A1.989,1.989,0,0,1,324.714,192.85Z" transform="translate(-290.929 -176.57)"/><path class="h" d="M323.827,215.92h-5.845a2.153,2.153,0,1,0,0,4.306h5.845a2.153,2.153,0,0,0,0-4.306Z" transform="translate(-290.93 -198.928)"/><path class="a" d="M323.826,232.12h-5.845a2.155,2.155,0,0,1-1.923-1.185,2.152,2.152,0,0,0,1.922,3.121h5.845a2.152,2.152,0,0,0,1.922-3.121A2.155,2.155,0,0,1,323.826,232.12Z" transform="translate(-290.929 -212.758)"/><path class="h" d="M322.217,255.447h-4.236a2.153,2.153,0,0,0,0,4.306h4.236a2.153,2.153,0,1,0,0-4.306Z" transform="translate(-290.929 -235.335)"/><path class="a" d="M322.217,271.658h-4.236a2.155,2.155,0,0,1-1.923-1.186,2.152,2.152,0,0,0,1.923,3.12h4.236a2.152,2.152,0,0,0,1.923-3.12A2.155,2.155,0,0,1,322.217,271.658Z" transform="translate(-290.929 -249.174)"/></g></g></svg>