<svg xmlns="http://www.w3.org/2000/svg" xmlns:xlink="http://www.w3.org/1999/xlink" width="65" height="78" viewBox="0 0 65 78"><defs><path id="ipfda" d="M1411.208 309.163c-.062-6.001 4.893-8.874 5.113-9.018-2.783-4.066-7.114-4.625-8.661-4.687-3.682-.378-7.193 2.169-9.066 2.169-1.867 0-4.757-2.118-7.814-2.063-4.022.062-7.724 2.34-9.797 5.937-4.176 7.247-1.07 17.98 3 23.866 1.99 2.876 4.364 6.105 7.476 5.991 3-.12 4.132-1.942 7.76-1.942 3.626 0 4.645 1.942 7.816 1.884 3.23-.062 5.27-2.934 7.244-5.816 2.285-3.34 3.226-6.575 3.284-6.736-.075-.042-6.29-2.42-6.355-9.585z"/><path id="ipfdb" d="M1405.244 291.563c1.65-2 2.77-4.787 2.464-7.563-2.385.096-5.264 1.582-6.977 3.586-1.533 1.774-2.868 4.605-2.511 7.326 2.656.21 5.373-1.352 7.024-3.349z"/></defs><g><g transform="translate(-1364 -284)"><g><g><g><use fill="#e7ecf2" xlink:href="#ipfda"/></g><g><use fill="#e7ecf2" xlink:href="#ipfdb"/></g></g></g><g><g><text fill="#777" style="font-kerning:normal" dominant-baseline="text-before-edge" font-family="'Futura','FuturaBT-Medium'" font-size="12" transform="translate(1366 339)"><tspan>MacOs App</tspan></text></g></g><g><g><text fill="#e7ecf2" style="font-kerning:normal" dominant-baseline="text-before-edge" font-family="'Futura','Futura-Bold'" font-size="10" font-style="none" font-weight="700" transform="translate(1364 351)"><tspan>DON’T HAVE</tspan></text></g></g></g></g></svg>