<svg version="1.1" xmlns="http://www.w3.org/2000/svg" xmlns:xlink="http://www.w3.org/1999/xlink">
<defs>
<symbol id="icon-twitter" viewBox="0 0 32 32">
<title>twitter</title>
<path d="M22.809 12.603c0-0.159-0.004-0.316-0.010-0.472 0.685-0.517 1.262-1.134 1.718-1.838l0.017-0.028c-0.582 0.269-1.257 0.462-1.965 0.543l-0.031 0.003c0.726-0.457 1.268-1.15 1.522-1.97l0.007-0.025c-0.634 0.392-1.374 0.687-2.164 0.844l-0.042 0.007c-0.634-0.721-1.538-1.18-2.537-1.197-1.92-0.032-3.475 1.591-3.475 3.623 0 0.289 0.030 0.568 0.089 0.839-2.889-0.185-5.451-1.689-7.164-3.958-0.296 0.533-0.471 1.168-0.471 1.844 0 0.005 0 0.010 0 0.015v-0.001c0 1.288 0.614 2.431 1.546 3.106-0.586-0.028-1.125-0.204-1.589-0.49l0.014 0.008v0.047c0 1.8 1.198 3.306 2.789 3.658-0.267 0.078-0.574 0.123-0.892 0.123-0.24 0-0.474-0.026-0.699-0.074l0.022 0.004c0.442 1.475 1.726 2.552 3.246 2.587-1.19 0.986-2.689 1.576-4.316 1.572-0.28 0-0.557-0.019-0.829-0.053 1.488 1.043 3.335 1.667 5.327 1.67h0.001c6.391 0.002 9.887-5.561 9.887-10.388z"></path>
<path d="M1.763 15.731c0-7.898 6.402-14.301 14.3-14.301s14.301 6.403 14.301 14.301-6.403 14.301-14.301 14.301-14.3-6.403-14.3-14.301zM31.794 15.731c0-8.687-7.043-15.731-15.731-15.731s-15.731 7.043-15.731 15.731c0 8.687 7.043 15.731 15.731 15.731s15.731-7.043 15.731-15.731z"></path>
</symbol>
<symbol id="icon-facebook" viewBox="0 0 32 32">
<title>facebook</title>
<path d="M1.431 15.731c0-7.898 6.402-14.301 14.3-14.301s14.301 6.403 14.301 14.301-6.403 14.301-14.301 14.301-14.301-6.403-14.301-14.301zM31.462 15.731c0-8.687-7.043-15.731-15.731-15.731s-15.731 7.043-15.731 15.731c0 8.687 7.043 15.731 15.731 15.731s15.731-7.043 15.731-15.731z"></path>
<path d="M16.334 24.81v-9.080h2.997l0.472-3.009h-3.469v-1.509c0-0.785 0.258-1.534 1.384-1.534h2.252v-3.003h-3.197c-2.689 0-3.422 1.769-3.422 4.224v1.821h-1.845v3.010h1.845v9.080h2.984z"></path>
</symbol>
</defs>
</svg>
