<svg version="1.1" xmlns="http://www.w3.org/2000/svg" xmlns:xlink="http://www.w3.org/1999/xlink">
<defs>
<symbol id="icon-cherry" viewBox="0 0 31 32">
<title>cherry</title>
<path d="M10.215 20.703c-1.537 0.002-2.783 1.248-2.785 2.785v0h-1.857c0.002-2.563 2.079-4.641 4.642-4.644h0zM21.359 20.703c-1.537 0.002-2.783 1.248-2.785 2.785v0h-1.857c0.002-2.563 2.079-4.641 4.642-4.644h0zM7.43 9.496c1.419 0 2.667-0.387 3.699-0.882-1.024 1.916-1.676 4.172-1.799 6.567l-0.002 0.039c-4.188 0.449-7.471 3.962-7.471 8.269 0 4.608 3.75 8.419 8.358 8.419 1.419 0 2.78-0.399 4-1.069-1.896-1.873-3.071-4.472-3.071-7.346 0-0.001 0-0.003 0-0.004v0c0-2.854 1.178-5.434 3.071-7.29-0.875-0.495-1.899-0.848-2.987-0.997l-0.044-0.005c0.403-6.563 5.362-11.978 11.754-12.966-1.567 2.177-2.506 4.898-2.506 7.838 0 0.013 0 0.026 0 0.039v-0.002 5.119c-4.168 0.469-7.43 3.972-7.43 8.264 0 4.608 3.75 8.419 8.358 8.419 4.609 0 8.358-3.811 8.358-8.419 0-4.292-3.261-7.795-7.43-8.264v-5.117c0-3.14 1.224-6.093 3.443-8.313l1.586-1.585h-2.243c-0.003 0-0.006 0-0.010 0-4.364 0-8.314 1.777-11.165 4.646l-0.001 0.001c-0.751-0.719-3.158-2.79-6.47-2.79-3.918 0-6.599 2.919-6.728 3.044l-0.701 0.671 0.701 0.671c0.129 0.125 2.81 3.044 6.728 3.044z"></path>
</symbol>
<symbol id="icon-Path_22" viewBox="0 0 23 32">
<title>Path_22</title>
<path d="M19.2 17.105c-0 0-0.001 0-0.001 0-0.304 0-0.574-0.145-0.745-0.369l-0.002-0.002c-1.111 0.734-2.426 2.138-2.426 4.693 0 0-1.728-1.547-4.663-1.547h-0.017c-2.935 0-4.665 1.547-4.665 1.547 0-2.564-1.322-3.97-2.437-4.702-0.172 0.234-0.447 0.383-0.756 0.383-0.517 0-0.937-0.419-0.937-0.937 0-0.002 0-0.004 0-0.006v0c0-0.518 0.421-0.939 0.939-0.939 0.458 0 0.839 0.327 0.922 0.761l0.001 0.006c2.256 0.341 3.822 2.064 3.822 2.064 0-2.603 1.898-5.772 2.729-7.035-0.314-0.156-0.527-0.475-0.527-0.843 0-0.518 0.42-0.938 0.938-0.938s0.938 0.42 0.938 0.938c0 0.381-0.227 0.708-0.553 0.855l-0.006 0.002c0.836 1.273 2.719 4.427 2.719 7.020 0 0 1.557-1.711 3.803-2.059 0.082-0.442 0.465-0.772 0.924-0.772 0.519 0 0.939 0.42 0.939 0.939s-0.42 0.939-0.939 0.939c-0 0-0.001 0-0.001 0h0zM22.638 2.638c0-1.169-0.948-2.117-2.117-2.117h-18.404c-1.169 0-2.116 0.948-2.116 2.117v27.185c0 1.169 0.948 2.116 2.116 2.116h18.406c1.169 0 2.116-0.948 2.116-2.116z"></path>
</symbol>
</defs>
</svg>
