<svg xmlns="http://www.w3.org/2000/svg" width="21.038" height="20.12" viewBox="0 0 21.038 20.12"><defs><style>.a{fill:#e7ecf2;}</style></defs><path class="a" d="M11.535,1.678l2.373,4.808a1.133,1.133,0,0,0,.853.62l5.306.771A1.133,1.133,0,0,1,20.7,9.809l-3.839,3.742a1.133,1.133,0,0,0-.326,1l.906,5.285a1.133,1.133,0,0,1-1.644,1.195l-4.746-2.495a1.134,1.134,0,0,0-1.055,0L5.247,21.034A1.133,1.133,0,0,1,3.6,19.839l.906-5.285a1.133,1.133,0,0,0-.326-1L.344,9.809A1.133,1.133,0,0,1,.972,7.877l5.306-.771a1.133,1.133,0,0,0,.853-.62L9.5,1.678A1.133,1.133,0,0,1,11.535,1.678Z" transform="translate(0 -1.047)"/></svg>