<svg xmlns="http://www.w3.org/2000/svg" xmlns:xlink="http://www.w3.org/1999/xlink" width="348" height="303" viewBox="0 0 348 303"><defs><path id="lnzna" d="M394 970.09C394 886.647 461.646 819 545.09 819c83.446 0 151.091 67.646 151.091 151.09 0 83.446-67.645 151.091-151.09 151.091-83.445 0-151.091-67.645-151.091-151.09z"/><path id="lnznb" d="M421.471 988.82c0-73.1 61.496-132.36 137.355-132.36 75.86 0 137.355 59.26 137.355 132.36 0 73.101-61.496 132.361-137.355 132.361-75.859 0-137.355-59.26-137.355-132.36z"/><path id="lnznc" d="M554.74 913.014c-57.537 0-104.181 46.639-104.181 104.18 0 57.534 46.643 104.177 104.182 104.177 57.535 0 104.178-46.643 104.178-104.176 0-57.542-46.643-104.181-104.178-104.181z"/><path id="lnznd" d="M554.74 945.714c-39.477 0-71.48 32-71.48 71.48 0 39.475 32.003 71.477 71.48 71.477 39.476 0 71.478-32.002 71.478-71.477 0-39.48-32.002-71.48-71.478-71.48z"/><path id="lnzne" d="M554.74 951.383c-36.346 0-65.811 29.462-65.811 65.811 0 36.343 29.465 65.809 65.811 65.809 36.345 0 65.81-29.465 65.81-65.809 0-36.35-29.465-65.811-65.81-65.811z"/><path id="lnznf" d="M554.74 913.014c-6.601 0-13.057.62-19.318 1.795v25.743h38.635v-25.744a104.733 104.733 0 0 0-19.316-1.794z"/><path id="lnzng" d="M535.422 1093.413v26.163a104.727 104.727 0 0 0 19.319 1.795c6.6 0 13.055-.621 19.316-1.795v-26.163z"/><path id="lnznh" d="M632.067 947.383l-22.045 13.397 20.065 33.017 22.123-13.445a104.165 104.165 0 0 0-20.143-32.97z"/><path id="lnzni" d="M479.393 1040.168l-22.254 13.524a104.145 104.145 0 0 0 20.032 33.037l22.287-13.545z"/><path id="lnznj" d="M630.138 1039.998l-19.99 33.062 22.317 13.493a104.139 104.139 0 0 0 19.958-33.081z"/><path id="lnznk" d="M477.256 947.559a104.14 104.14 0 0 0-20.07 33.013l22.154 13.395 19.99-33.061z"/><path id="lnznl" d="M726.61 1015.994v-84.15h8.415v84.15z"/><path id="lnznm" d="M735.025 1041.239h-16.83a4.208 4.208 0 0 1-4.208-4.208v-25.245a4.208 4.208 0 0 1 4.208-4.208h16.83a4.208 4.208 0 0 1 4.208 4.208v25.245a4.208 4.208 0 0 1-4.208 4.208z"/><path id="lnznn" d="M718.195 1049.654h-12.623a4.208 4.208 0 0 1-4.207-4.208v-42.075a4.208 4.208 0 0 1 4.207-4.208h12.623a4.208 4.208 0 0 1 4.208 4.208v42.075a4.208 4.208 0 0 1-4.208 4.208z"/><path id="lnzno" d="M604.593 893.976c0-9.294 7.535-16.83 16.83-16.83 9.294 0 16.83 7.536 16.83 16.83 0 9.295-7.536 16.83-16.83 16.83-9.295 0-16.83-7.535-16.83-16.83z"/><path id="lnznp" d="M617.215 893.976c0-7.06 4.356-13.082 10.52-15.582a16.752 16.752 0 0 0-6.312-1.247c-9.295 0-16.83 7.535-16.83 16.83 0 9.294 7.535 16.83 16.83 16.83 2.235 0 4.359-.457 6.31-1.249-6.162-2.499-10.518-8.522-10.518-15.582z"/><path id="lnznq" d="M705.573 1121.181h-168.3a8.415 8.415 0 0 1-8.415-8.415v-201.96a8.415 8.415 0 0 1 8.415-8.414h168.3a8.415 8.415 0 0 1 8.414 8.415v201.96a8.415 8.415 0 0 1-8.414 8.414z"/><path id="lnznr" d="M697.158 1020.201h-151.47a4.208 4.208 0 0 1-4.208-4.207v-92.565a4.208 4.208 0 0 1 4.208-4.208h151.47a4.208 4.208 0 0 1 4.207 4.208v92.565a4.208 4.208 0 0 1-4.207 4.207z"/><path id="lnzns" d="M588.414 994.956h-34.963a3.556 3.556 0 0 1-3.555-3.555v-60.209a3.556 3.556 0 0 1 3.555-3.555h34.963a3.556 3.556 0 0 1 3.556 3.555v60.209a3.556 3.556 0 0 1-3.556 3.555z"/><path id="lnznt" d="M563.58 956.777h9.039c-7.626 3.578-6.779 18.077-6.779 18.077h11.298c0-15.11 9.04-22.596 9.04-22.596l-2.26-4.52H559.05a2.249 2.249 0 0 0-2.248 2.25v11.308h4.508a2.27 2.27 0 0 0 2.271-2.27v-2.25z"/><path id="lnznu" d="M549.895 957.089v8.415a4.208 4.208 0 0 0 0-8.415z"/><path id="lnznv" d="M591.97 965.504v-8.415a4.208 4.208 0 0 0 0 8.415z"/><path id="lnznw" d="M638.904 994.956h-34.963a3.556 3.556 0 0 1-3.555-3.555v-60.209a3.556 3.556 0 0 1 3.555-3.555h34.963a3.556 3.556 0 0 1 3.556 3.555v60.209a3.556 3.556 0 0 1-3.556 3.555z"/><path id="lnznx" d="M614.07 956.777h9.039c-7.626 3.578-6.779 18.077-6.779 18.077h11.298c0-15.11 9.04-22.596 9.04-22.596l-2.26-4.52H609.54a2.249 2.249 0 0 0-2.249 2.25v11.308h4.51a2.27 2.27 0 0 0 2.27-2.27v-2.25h-.002z"/><path id="lnzny" d="M600.385 957.089v8.415a4.208 4.208 0 0 0 0-8.415z"/><path id="lnznz" d="M642.46 965.504v-8.415a4.208 4.208 0 0 0 0 8.415z"/><path id="lnznA" d="M689.394 994.956h-34.963a3.556 3.556 0 0 1-3.556-3.555v-60.209a3.556 3.556 0 0 1 3.556-3.555h34.963a3.556 3.556 0 0 1 3.556 3.555v60.209a3.556 3.556 0 0 1-3.556 3.555z"/><path id="lnznB" d="M664.56 956.777h9.039c-7.626 3.578-6.779 18.077-6.779 18.077h11.298c0-15.11 9.039-22.596 9.039-22.596l-2.26-4.52h-24.866a2.249 2.249 0 0 0-2.249 2.25v11.308h4.51a2.27 2.27 0 0 0 2.27-2.27v-2.25h-.002z"/><path id="lnznC" d="M650.875 957.089v8.415a4.208 4.208 0 0 0 0-8.415z"/><path id="lnznD" d="M692.95 965.504v-8.415a4.208 4.208 0 0 0 0 8.415z"/><path id="lnznE" d="M688.743 1011.787h-33.66a4.208 4.208 0 0 1 0-8.415h33.66a4.208 4.208 0 0 1 0 8.415z"/><path id="lnznF" d="M638.253 1011.787h-84.15a4.208 4.208 0 0 1 0-8.415h84.15a4.208 4.208 0 0 1 0 8.415z"/><path id="lnznG" d="M642.46 902.392h-42.075v-4.208a4.208 4.208 0 0 1 4.208-4.208h33.66a4.208 4.208 0 0 1 4.208 4.208v4.208z"/><path id="lnznH" d="M617.215 893.976h-12.622a4.208 4.208 0 0 0-4.208 4.208v4.208h12.623v-4.208a4.208 4.208 0 0 1 4.207-4.208z"/><path id="lnznI" d="M566.725 1041.239h-12.622a4.208 4.208 0 0 1-4.208-4.208v-4.207a4.208 4.208 0 0 1 4.208-4.208h12.622a4.208 4.208 0 0 1 4.208 4.208v4.207a4.208 4.208 0 0 1-4.208 4.208z"/><path id="lnznJ" d="M596.178 1041.239h-12.623a4.208 4.208 0 0 1-4.207-4.208v-4.207a4.208 4.208 0 0 1 4.207-4.208h12.623a4.208 4.208 0 0 1 4.208 4.208v4.207a4.208 4.208 0 0 1-4.208 4.208z"/><path id="lnznK" d="M625.63 1041.239h-12.622a4.208 4.208 0 0 1-4.208-4.208v-4.207a4.208 4.208 0 0 1 4.208-4.208h12.622a4.208 4.208 0 0 1 4.208 4.208v4.207a4.208 4.208 0 0 1-4.208 4.208z"/><path id="lnznL" d="M697.158 1032.824h-.611c-1.759 0-3.472 1.005-4.03 2.673a8.42 8.42 0 0 1-15.964 0c-.558-1.668-2.27-2.673-4.03-2.673h-17.44a4.208 4.208 0 0 0-4.209 4.208v12.622h50.49v-12.622a4.207 4.207 0 0 0-4.206-4.208z"/><path id="lnznM" d="M705.573 1121.181h-168.3a8.415 8.415 0 0 1-8.415-8.415v-54.697a8.415 8.415 0 0 1 8.415-8.415h168.3a8.415 8.415 0 0 1 8.414 8.415v54.697a8.415 8.415 0 0 1-8.414 8.415z"/><path id="lnznN" d="M663.498 1112.766h-84.15a4.208 4.208 0 0 1-4.208-4.207v-16.83a4.208 4.208 0 0 1 4.208-4.208h84.15a4.208 4.208 0 0 1 4.207 4.208v16.83a4.208 4.208 0 0 1-4.207 4.207z"/><path id="lnznO" d="M575.14 1091.729v4.208h92.565v-4.208a4.208 4.208 0 0 0-4.207-4.208h-84.15a4.207 4.207 0 0 0-4.208 4.208z"/><path id="lnznP" d="M528.858 1104.351h33.66a4.208 4.208 0 0 0 0-8.415h-33.66z"/><path id="lnznQ" d="M713.987 1095.936h-33.66a4.208 4.208 0 0 0 0 8.415h33.66z"/><path id="lnznR" d="M697.158 1070.691h-151.47a4.208 4.208 0 0 1 0-8.415h151.47a4.208 4.208 0 0 1 0 8.415z"/><path id="lnznS" d="M720.299 929.74c0-5.809 4.71-10.518 10.519-10.518 5.81 0 10.518 4.71 10.518 10.518 0 5.81-4.709 10.52-10.518 10.52-5.81 0-10.519-4.71-10.519-10.52z"/><path id="lnznT" d="M726.61 929.74c0-4.702 3.106-8.637 7.363-9.983-1.002-.317-2.048-.535-3.156-.535-5.81 0-10.518 4.709-10.518 10.518 0 5.81 4.709 10.52 10.518 10.52 1.108 0 2.154-.22 3.156-.536-4.257-1.347-7.363-5.282-7.363-9.984z"/></defs><g><g transform="translate(-394 -819)"><g><use fill="#204883" fill-opacity=".1" xlink:href="#lnzna"/></g><g><use fill="#204883" fill-opacity=".11" xlink:href="#lnznb"/></g><g><g><use fill="#f6772e" xlink:href="#lnznc"/></g><g><use fill="#fff" xlink:href="#lnznd"/></g><g><use fill="#f6772e" xlink:href="#lnzne"/></g><g><g><use fill="#f0f2f2" xlink:href="#lnznf"/></g><g><use fill="#f0f2f2" xlink:href="#lnzng"/></g><g><use fill="#f0f2f2" xlink:href="#lnznh"/></g><g><use fill="#f0f2f2" xlink:href="#lnzni"/></g><g><use fill="#f0f2f2" xlink:href="#lnznj"/></g><g><use fill="#f0f2f2" xlink:href="#lnznk"/></g></g></g><g><g><use fill="#afb9d2" xlink:href="#lnznl"/></g><g><use fill="#c7cfe2" xlink:href="#lnznm"/></g><g><use fill="#afb9d2" xlink:href="#lnznn"/></g><g><use fill="#f6772e" xlink:href="#lnzno"/></g><g><use fill="#faa370" xlink:href="#lnznp"/></g><g><use fill="#c7cfe2" xlink:href="#lnznq"/></g><g><use fill="#afb9d2" xlink:href="#lnznr"/></g><g><use fill="#eff2fa" xlink:href="#lnzns"/></g><g><g><use fill="#f6772e" xlink:href="#lnznt"/></g><g><use fill="#f6772e" xlink:href="#lnznu"/></g><g><use fill="#f6772e" xlink:href="#lnznv"/></g></g><g><use fill="#eff2fa" xlink:href="#lnznw"/></g><g><g><use fill="#f6772e" xlink:href="#lnznx"/></g><g><use fill="#f6772e" xlink:href="#lnzny"/></g><g><use fill="#f6772e" xlink:href="#lnznz"/></g></g><g><use fill="#eff2fa" xlink:href="#lnznA"/></g><g><g><use fill="#f6772e" xlink:href="#lnznB"/></g><g><use fill="#f6772e" xlink:href="#lnznC"/></g><g><use fill="#f6772e" xlink:href="#lnznD"/></g></g><g><g><use fill="#163665" xlink:href="#lnznE"/></g><g><use fill="#163665" xlink:href="#lnznF"/></g></g><g><use fill="#afb9d2" xlink:href="#lnznG"/></g><g><use fill="#959cb3" xlink:href="#lnznH"/></g><g><g><use fill="#f6772e" xlink:href="#lnznI"/></g><g><use fill="#f6772e" xlink:href="#lnznJ"/></g></g><g><use fill="#ffe669" xlink:href="#lnznK"/></g><g><use fill="#959cb3" xlink:href="#lnznL"/></g><g><use fill="#afb9d2" xlink:href="#lnznM"/></g><g><use fill="#204883" xlink:href="#lnznN"/></g><g><use fill="#163665" xlink:href="#lnznO"/></g><g><g><use fill="#959cb3" xlink:href="#lnznP"/></g><g><use fill="#959cb3" xlink:href="#lnznQ"/></g></g><g><use fill="#c7cfe2" xlink:href="#lnznR"/></g><g><use fill="#f6772e" xlink:href="#lnznS"/></g><g><use fill="#faa370" xlink:href="#lnznT"/></g></g></g></g></svg>