<svg xmlns="http://www.w3.org/2000/svg" xmlns:xlink="http://www.w3.org/1999/xlink" width="36" height="36" viewBox="0 0 36 36"><defs><path id="bux3a" d="M494.034 1619.256h-6.517l1.11-2.37.963-2.222h2.37l.963 2.221z"/><path id="bux3b" d="M498.182 1619.256h-14.813c-.815 0-1.481.666-1.481 1.48v4.815h17.701v-4.814c.074-.815-.592-1.481-1.407-1.481z"/><path id="bux3c" d="M492.923 1616.885c-.592.297-1.185.593-1.777.815l-.37.074-.37-.148c-.593-.222-1.186-.518-1.778-.815l.962-2.222h2.296z"/><path id="bux3d" d="M505.588 1597.11c0 3.555-1.259 6.814-3.407 9.406-2.74 3.26-6.814 5.407-11.405 5.407-4.592 0-8.666-2.074-11.406-5.407-2.074-2.518-3.407-5.85-3.407-9.406v-.074h29.551v.074zM473 1594.074v3.036c0 7.407 4.592 13.776 11.036 16.443 2.073.888 4.37 1.333 6.74 1.333s4.666-.445 6.74-1.333c6.443-2.667 11.035-9.036 11.035-16.443v-3.036z"/><path id="bux3e" d="M502.33 1590H479.22c-.518 0-.888.444-.888.889 0 .518.37.963.888.963h23.109c.518 0 .888-.445.888-.89 0-.518-.37-.962-.888-.962z"/><path id="bux3f" d="M502.33 1591.852v7.999c0 7.406-4.592 14.146-11.554 16.812-6.962-2.74-11.555-9.406-11.555-16.887v-7.924z"/><path id="bux3g" d="M490.776 1595.185l1.555 4.74h4.962l-4 2.962 1.482 4.74-4-2.962-3.999 2.962 1.481-4.74-4-2.962h4.963z"/><path id="bux3h" d="M479.221 1592.963v-1.111h23.034v1.11z"/></defs><g><g transform="translate(-473 -1590)"><g><use fill="#ff7058" xlink:href="#bux3a"/></g><g><use fill="#ffd15c" xlink:href="#bux3b"/></g><g><use fill="#f1543f" xlink:href="#bux3c"/></g><g><g><use fill="#f8b64c" xlink:href="#bux3d"/></g><g><use fill="#f8b64c" xlink:href="#bux3e"/></g></g><g><use fill="#ffd15c" xlink:href="#bux3f"/></g><g><use fill="#fff" xlink:href="#bux3g"/></g><g><use fill="#ffc952" xlink:href="#bux3h"/></g></g></g></svg>