<svg xmlns="http://www.w3.org/2000/svg" width="81.795" height="81.795" viewBox="0 0 81.795 81.795"><defs><style>.a{fill:#e7ecf2;}</style></defs><path class="a" d="M81.795,40.9a40.9,40.9,0,1,0-68.52,30.127l-.039.034,1.327,1.118c.086.073.18.132.266.2.7.584,1.435,1.139,2.179,1.676.241.174.482.348.727.518q1.191.821,2.442,1.559c.181.107.364.211.547.315.912.519,1.843,1.008,2.8,1.457.07.033.141.062.211.1a40.529,40.529,0,0,0,9.891,3.131l.274.049c1.077.186,2.165.335,3.267.434.134.012.268.019.4.031,1.1.091,2.207.149,3.331.149s2.213-.058,3.3-.146c.138-.012.277-.019.415-.031q1.64-.149,3.239-.427c.092-.016.186-.033.278-.051a40.527,40.527,0,0,0,9.751-3.056c.113-.052.228-.1.341-.155q1.376-.647,2.693-1.392.328-.185.653-.376c.8-.471,1.587-.964,2.351-1.487.275-.187.544-.385.816-.581.653-.47,1.294-.955,1.917-1.462.138-.112.287-.208.422-.323l1.361-1.136-.04-.034A40.792,40.792,0,0,0,81.795,40.9Zm-78.821,0a37.923,37.923,0,1,1,63.073,28.35,11.144,11.144,0,0,0-1.328-.8l-12.592-6.3a3.3,3.3,0,0,1-1.832-2.964v-4.4c.291-.36.6-.767.918-1.215a30.306,30.306,0,0,0,3.89-7.619,5.4,5.4,0,0,0,3.1-4.891V35.795a5.411,5.411,0,0,0-1.319-3.523V25.331a11.994,11.994,0,0,0-2.8-8.721C51.343,13.481,46.907,11.9,40.9,11.9s-10.446,1.584-13.187,4.711a12,12,0,0,0-2.8,8.721V32.27a5.419,5.419,0,0,0-1.319,3.523v5.272a5.41,5.41,0,0,0,1.993,4.2,27.944,27.944,0,0,0,4.6,9.5v4.3a3.317,3.317,0,0,1-1.728,2.912L16.7,68.392a10.748,10.748,0,0,0-1.118.708A37.832,37.832,0,0,1,2.974,40.9Z"/></svg>